<svg width="60" height="60" viewBox="0 0 60 60" fill="none" xmlns="http://www.w3.org/2000/svg">
<g clip-path="url(#clip0_224_338)">
<path d="M2.5 11.8749H9.34C9.87659 13.8492 11.0479 15.5922 12.6733 16.8347C14.2987 18.0773 16.2878 18.7506 18.3337 18.7506C20.3797 18.7506 22.3688 18.0773 23.9942 16.8347C25.6196 15.5922 26.7909 13.8492 27.3275 11.8749H57.5C58.163 11.8749 58.7989 11.6115 59.2678 11.1427C59.7366 10.6738 60 10.038 60 9.37492C60 8.71187 59.7366 8.07599 59.2678 7.60715C58.7989 7.13831 58.163 6.87492 57.5 6.87492H27.3275C26.7909 4.90059 25.6196 3.15768 23.9942 1.91509C22.3688 0.672495 20.3797 -0.000732422 18.3337 -0.000732422C16.2878 -0.000732422 14.2987 0.672495 12.6733 1.91509C11.0479 3.15768 9.87659 4.90059 9.34 6.87492H2.5C1.83696 6.87492 1.20107 7.13831 0.732233 7.60715C0.263392 8.07599 0 8.71187 0 9.37492C0 10.038 0.263392 10.6738 0.732233 11.1427C1.20107 11.6115 1.83696 11.8749 2.5 11.8749ZM18.3325 4.99992C19.1978 4.99991 20.0437 5.2565 20.7631 5.73724C21.4826 6.21797 22.0433 6.90125 22.3745 7.70067C22.7056 8.5001 22.7922 9.37977 22.6234 10.2284C22.4546 11.0771 22.0379 11.8567 21.4261 12.4685C20.8142 13.0804 20.0347 13.497 19.186 13.6659C18.3374 13.8347 17.4577 13.748 16.6583 13.4169C15.8588 13.0858 15.1756 12.525 14.6948 11.8055C14.2141 11.0861 13.9575 10.2402 13.9575 9.37492C13.9588 8.215 14.4202 7.10297 15.2404 6.28278C16.0606 5.4626 17.1726 5.00124 18.3325 4.99992Z" fill="#FAB452"/>
<path d="M57.5 27.4999H50.66C50.1243 25.5251 48.9534 23.7816 47.3282 22.5385C45.7029 21.2954 43.7137 20.6218 41.6675 20.6218C39.6213 20.6218 37.6321 21.2954 36.0068 22.5385C34.3816 23.7816 33.2107 25.5251 32.675 27.4999H2.5C1.83696 27.4999 1.20107 27.7633 0.732233 28.2321C0.263392 28.701 0 29.3369 0 29.9999C0 30.663 0.263392 31.2988 0.732233 31.7677C1.20107 32.2365 1.83696 32.4999 2.5 32.4999H32.675C33.2107 34.4747 34.3816 36.2182 36.0068 37.4613C37.6321 38.7044 39.6213 39.378 41.6675 39.378C43.7137 39.378 45.7029 38.7044 47.3282 37.4613C48.9534 36.2182 50.1243 34.4747 50.66 32.4999H57.5C58.163 32.4999 58.7989 32.2365 59.2678 31.7677C59.7366 31.2988 60 30.663 60 29.9999C60 29.3369 59.7366 28.701 59.2678 28.2321C58.7989 27.7633 58.163 27.4999 57.5 27.4999ZM41.6675 34.3749C40.8022 34.3749 39.9563 34.1183 39.2369 33.6376C38.5174 33.1569 37.9567 32.4736 37.6255 31.6742C37.2944 30.8747 37.2078 29.9951 37.3766 29.1464C37.5454 28.2977 37.9621 27.5182 38.5739 26.9063C39.1858 26.2945 39.9653 25.8778 40.814 25.709C41.6626 25.5402 42.5423 25.6268 43.3417 25.9579C44.1412 26.2891 44.8244 26.8498 45.3052 27.5693C45.7859 28.2888 46.0425 29.1346 46.0425 29.9999C46.0412 31.1598 45.5798 32.2719 44.7596 33.092C43.9394 33.9122 42.8274 34.3736 41.6675 34.3749Z" fill="#FAB452"/>
<path d="M57.5 48.1249H27.3275C26.7909 46.1506 25.6196 44.4077 23.9942 43.1651C22.3688 41.9225 20.3797 41.2493 18.3337 41.2493C16.2878 41.2493 14.2987 41.9225 12.6733 43.1651C11.0479 44.4077 9.87659 46.1506 9.34 48.1249H2.5C1.83696 48.1249 1.20107 48.3883 0.732233 48.8571C0.263392 49.326 0 49.9619 0 50.6249C0 51.288 0.263392 51.9238 0.732233 52.3927C1.20107 52.8615 1.83696 53.1249 2.5 53.1249H9.34C9.87659 55.0992 11.0479 56.8422 12.6733 58.0847C14.2987 59.3273 16.2878 60.0006 18.3337 60.0006C20.3797 60.0006 22.3688 59.3273 23.9942 58.0847C25.6196 56.8422 26.7909 55.0992 27.3275 53.1249H57.5C58.163 53.1249 58.7989 52.8615 59.2678 52.3927C59.7366 51.9238 60 51.288 60 50.6249C60 49.9619 59.7366 49.326 59.2678 48.8571C58.7989 48.3883 58.163 48.1249 57.5 48.1249ZM18.3325 54.9999C17.4672 54.9999 16.6213 54.7433 15.9019 54.2626C15.1824 53.7819 14.6217 53.0986 14.2905 52.2992C13.9594 51.4997 13.8728 50.6201 14.0416 49.7714C14.2104 48.9227 14.6271 48.1432 15.2389 47.5313C15.8508 46.9195 16.6303 46.5028 17.479 46.334C18.3276 46.1652 19.2073 46.2518 20.0067 46.5829C20.8062 46.9141 21.4894 47.4748 21.9702 48.1943C22.4509 48.9138 22.7075 49.7596 22.7075 50.6249C22.7055 51.7846 22.2439 52.8963 21.4239 53.7163C20.6039 54.5364 19.4922 54.9979 18.3325 54.9999Z" fill="#FAB452"/>
</g>
<defs>
<clipPath id="clip0_224_338">
<rect width="60" height="60" fill="white"/>
</clipPath>
</defs>
</svg>
