<svg width="68" height="68" viewBox="0 0 68 68" fill="none" xmlns="http://www.w3.org/2000/svg">
<g clip-path="url(#clip0_224_342)">
<path d="M46.75 34H38.25C37.468 34 36.8333 33.3653 36.8333 32.5833C36.8333 31.8013 37.468 31.1667 38.25 31.1667H46.75C47.532 31.1667 48.1667 31.8013 48.1667 32.5833C48.1667 33.3653 47.532 34 46.75 34ZM48.1667 46.75C48.1667 45.968 47.532 45.3333 46.75 45.3333H32.5833C31.8013 45.3333 31.1667 45.968 31.1667 46.75C31.1667 47.532 31.8013 48.1667 32.5833 48.1667H46.75C47.532 48.1667 48.1667 47.532 48.1667 46.75ZM59.5 55.25V18.4167C59.5 11.3872 53.7795 5.66667 46.75 5.66667H45.1917C44.5343 2.43667 41.6727 0 38.25 0H29.75C26.3273 0 23.4685 2.43667 22.8083 5.66667H21.25C14.2205 5.66667 8.5 11.3872 8.5 18.4167V55.25C8.5 62.2795 14.2205 68 21.25 68H46.75C53.7795 68 59.5 62.2795 59.5 55.25ZM24.0833 8.5C24.8653 8.5 25.5 7.86533 25.5 7.08333C25.5 4.74017 27.4068 2.83333 29.75 2.83333H38.25C40.5932 2.83333 42.5 4.74017 42.5 7.08333C42.5 7.86533 43.1347 8.5 43.9167 8.5H46.75C52.2183 8.5 56.6667 12.9483 56.6667 18.4167V55.25C56.6667 60.7183 52.2183 65.1667 46.75 65.1667H21.25C15.7817 65.1667 11.3333 60.7183 11.3333 55.25V18.4167C11.3333 12.9483 15.7817 8.5 21.25 8.5H24.0833ZM22.6667 43.9167C21.1027 43.9167 19.8333 45.186 19.8333 46.75C19.8333 48.314 21.1027 49.5833 22.6667 49.5833C24.2307 49.5833 25.5 48.314 25.5 46.75C25.5 45.186 24.2307 43.9167 22.6667 43.9167ZM26.8827 33.0423L34.9917 25.0948C35.5498 24.548 35.5583 23.6498 35.0115 23.0917C34.4647 22.5335 33.5665 22.5222 33.0083 23.0718L24.8908 31.0278C24.7322 31.1865 24.3808 31.1837 24.2052 31.0108L19.1647 26.1347C18.6037 25.5907 17.7055 25.6048 17.1615 26.1687C16.6175 26.7297 16.6317 27.6278 17.1955 28.1718L22.219 33.031C22.8423 33.6543 23.6725 34 24.5565 34C25.4405 34 26.2707 33.6543 26.8855 33.0423H26.8827Z" fill="#FAB452"/>
</g>
<defs>
<clipPath id="clip0_224_342">
<rect width="68" height="68" fill="white"/>
</clipPath>
</defs>
</svg>
