<svg width="60" height="60" viewBox="0 0 60 60" fill="none" xmlns="http://www.w3.org/2000/svg">
<path d="M31.05 14.15H28.925L25.125 25H14.275V27.075L22.1 33.375L19.175 43.15L20.85 44.425L29.975 38.5L39.125 44.425L40.8 43.15L37.875 33.375L45.7 27.075V25H34.85L31.05 14.15ZM35.025 32.475L37.35 40.275L30 35.5L22.65 40.275L24.975 32.475L18.8 27.5H26.925L30.025 18.675L33.125 27.5H41.25L35.075 32.475H35.025ZM53.75 0H6.25C2.8 0 0 2.8 0 6.25V60H60V6.25C60 2.8 57.2 0 53.75 0ZM57.5 57.5H2.5V6.25C2.5 4.175 4.175 2.5 6.25 2.5H53.75C55.825 2.5 57.5 4.175 57.5 6.25V57.5Z" fill="#FAB452"/>
</svg>
