<svg width="64" height="64" viewBox="0 0 64 64" fill="none" xmlns="http://www.w3.org/2000/svg">
<g clip-path="url(#clip0_224_345)">
<path d="M57.3333 10.6667H48V6.66667C48 2.98933 45.0107 0 41.3333 0H6.66667C2.992 0 0 2.98933 0 6.66667V48.944C0 50.5653 0.888 52.0533 2.32 52.8187C2.97333 53.168 3.68533 53.3387 4.39733 53.3387C5.248 53.3387 6.096 53.0907 6.832 52.6027L16 46.4907V56H46.264L57.1707 63.272C57.904 63.7627 58.7547 64.008 59.6053 64.008C60.3173 64.008 61.0293 63.8373 61.68 63.488C63.112 62.72 64 61.2347 64 59.6133V17.3333C64 13.656 61.0107 10.6667 57.3333 10.6667ZM5.352 50.3867C4.81333 50.7493 4.14933 50.7787 3.57867 50.4693C3.008 50.1653 2.66667 49.5947 2.66667 48.9467V6.66667C2.66667 4.46133 4.46133 2.66667 6.66667 2.66667H41.3333C43.5387 2.66667 45.3333 4.46133 45.3333 6.66667V42.6667H16.9307L5.352 50.3867ZM61.3333 59.6133C61.3333 60.2613 60.992 60.832 60.4213 61.136C59.8427 61.4453 59.1893 61.4107 58.6453 61.0533L47.0693 53.3333H18.6667V45.3333H48V13.3333H57.3333C59.5387 13.3333 61.3333 15.128 61.3333 17.3333V59.6133ZM26.6667 34.6693C26.6667 36.1413 25.472 37.336 24 37.336C22.528 37.336 21.3333 36.1413 21.3333 34.6693C21.3333 33.1973 22.528 32.0027 24 32.0027C25.472 32.0027 26.6667 33.1973 26.6667 34.6693ZM18.6667 16.0027H16C16 13.632 17.0427 11.3973 18.856 9.87467C20.672 8.34933 23.0693 7.712 25.4373 8.13067C28.6613 8.696 31.3067 11.3413 31.872 14.5653C32.4693 17.96 30.856 21.3573 27.856 23.0133C26.544 23.736 25.3307 24.84 25.3307 28.0027V29.336H22.664V28.0027C22.664 24.472 23.904 22.144 26.568 20.6773C28.6 19.5573 29.6507 17.3387 29.2427 15.0267C28.8693 12.888 27.1147 11.1333 24.9733 10.7547C23.3653 10.4773 21.7973 10.8853 20.568 11.9173C19.3573 12.9333 18.6667 14.4213 18.6667 16.0027Z" fill="#FAB452"/>
</g>
<defs>
<clipPath id="clip0_224_345">
<rect width="64" height="64" fill="white"/>
</clipPath>
</defs>
</svg>
