<svg width="60" height="60" viewBox="0 0 60 60" fill="none" xmlns="http://www.w3.org/2000/svg">
<path d="M13.75 25H31.25C34.695 25 37.5 22.1975 37.5 18.75V6.25C37.5 2.8025 34.695 0 31.25 0H13.75C10.305 0 7.5 2.8025 7.5 6.25V18.75C7.5 22.1975 10.305 25 13.75 25ZM10 6.25C10 4.1825 11.6825 2.5 13.75 2.5H31.25C33.3175 2.5 35 4.1825 35 6.25V18.75C35 20.8175 33.3175 22.5 31.25 22.5H13.75C11.6825 22.5 10 20.8175 10 18.75V6.25ZM17.5 8.75C17.5 8.06 18.06 7.5 18.75 7.5H26.25C26.94 7.5 27.5 8.06 27.5 8.75C27.5 9.44 26.94 10 26.25 10H18.75C18.06 10 17.5 9.44 17.5 8.75ZM57.9525 24.135C56.71 23.0075 55.095 22.4175 53.43 22.5075C51.755 22.585 50.21 23.31 49.0825 24.55L39.7525 34.8075C38.9675 32.0375 36.415 30 33.3975 30H8.75C3.925 30 0 33.925 0 38.75V51.25C0 56.075 3.925 60 8.75 60H23.6625C30.4275 60 36.8925 57.1025 41.395 52.05L58.41 32.95C60.685 30.395 60.4825 26.44 57.9525 24.135ZM56.545 31.285L39.53 50.385C35.5 54.9075 29.7175 57.5 23.6625 57.5H8.75C5.305 57.5 2.5 54.6975 2.5 51.25V38.75C2.5 35.3025 5.305 32.5 8.75 32.5H33.395C35.6575 32.5 37.5 34.3425 37.5 36.6075C37.5 38.6375 35.985 40.385 34.0025 40.6675L18.6 42.51C17.915 42.59 17.425 43.2125 17.5075 43.9C17.5925 44.5825 18.1925 45.1 18.8975 44.9925L34.325 43.1475C36.88 42.7825 38.94 40.9525 39.69 38.5875L50.9275 26.24C51.6075 25.4925 52.5375 25.055 53.545 25.01C54.54 24.9575 55.52 25.3125 56.265 25.99C57.785 27.38 57.91 29.7575 56.54 31.2925L56.545 31.285Z" fill="#FAB452"/>
</svg>
