<svg width="29" height="32" viewBox="0 0 29 32" fill="none" xmlns="http://www.w3.org/2000/svg">
<path d="M20.5358 2.47363H8.83704C5.06215 2.47363 2.00195 5.83625 2.00195 9.98421V22.839C2.00195 26.987 5.06215 30.3496 8.83704 30.3496H20.5357C24.3106 30.3496 27.3708 26.987 27.3708 22.839V9.98421C27.3708 5.83625 24.3106 2.47363 20.5358 2.47363V2.47363Z" stroke="white" stroke-width="3.17339" stroke-miterlimit="10"/>
<path d="M14.686 23.1405C18.068 23.1405 20.8096 20.128 20.8096 16.4118C20.8096 12.6956 18.068 9.68311 14.686 9.68311C11.3041 9.68311 8.5625 12.6956 8.5625 16.4118C8.5625 20.128 11.3041 23.1405 14.686 23.1405Z" stroke="white" stroke-width="3.17339" stroke-miterlimit="10"/>
<path d="M22.1218 9.68168C22.8465 9.68168 23.434 9.03633 23.434 8.24025C23.434 7.44418 22.8465 6.79883 22.1218 6.79883C21.3971 6.79883 20.8096 7.44418 20.8096 8.24025C20.8096 9.03633 21.3971 9.68168 22.1218 9.68168Z" fill="white"/>
</svg>
