<svg width="34" height="36" viewBox="0 0 34 36" fill="none" xmlns="http://www.w3.org/2000/svg">
<path d="M22.7902 12.25C25.2248 12.25 27.5598 13.3127 29.2813 15.2044C31.0029 17.0961 31.97 19.6618 31.97 22.3371V34.1053H25.8501V22.3371C25.8501 21.4453 25.5278 20.5901 24.9539 19.9595C24.3801 19.329 23.6017 18.9747 22.7902 18.9747C21.9787 18.9747 21.2003 19.329 20.6265 19.9595C20.0526 20.5901 19.7302 21.4453 19.7302 22.3371V34.1053H13.6104V22.3371C13.6104 19.6618 14.5775 17.0961 16.2991 15.2044C18.0206 13.3127 20.3556 12.25 22.7902 12.25V12.25Z" stroke="white" stroke-width="2.5" stroke-linecap="round" stroke-linejoin="round"/>
<path d="M7.4905 13.9312H1.37061V34.1053H7.4905V13.9312Z" stroke="white" stroke-width="2.5" stroke-linecap="round" stroke-linejoin="round"/>
<path d="M4.43055 8.88779C6.12052 8.88779 7.4905 7.38241 7.4905 5.52544C7.4905 3.66846 6.12052 2.16309 4.43055 2.16309C2.74059 2.16309 1.37061 3.66846 1.37061 5.52544C1.37061 7.38241 2.74059 8.88779 4.43055 8.88779Z" stroke="white" stroke-width="2.5" stroke-linecap="round" stroke-linejoin="round"/>
</svg>
