<svg width="24" height="36" viewBox="0 0 24 36" fill="none" xmlns="http://www.w3.org/2000/svg">
<path d="M11.7148 8.88965C10.8701 8.88965 10.0443 9.16489 9.34197 9.68056C8.63962 10.1962 8.09221 10.9292 7.76895 11.7867C7.4457 12.6442 7.36112 13.5878 7.52591 14.4982C7.69071 15.4085 8.09747 16.2448 8.69477 16.9011C9.29207 17.5574 10.0531 18.0044 10.8815 18.1854C11.71 18.3665 12.5688 18.2736 13.3492 17.9184C14.1296 17.5632 14.7966 16.9617 15.2659 16.1899C15.7352 15.4182 15.9857 14.5108 15.9857 13.5826C15.9844 12.3384 15.534 11.1456 14.7333 10.2658C13.9327 9.38596 12.8471 8.89107 11.7148 8.88965ZM11.7148 15.9291C11.2924 15.9291 10.8795 15.7915 10.5284 15.5337C10.1772 15.2758 9.90348 14.9094 9.74185 14.4806C9.58023 14.0518 9.53794 13.58 9.62034 13.1249C9.70273 12.6697 9.90612 12.2516 10.2048 11.9234C10.5034 11.5953 10.8839 11.3718 11.2982 11.2812C11.7124 11.1907 12.1418 11.2372 12.532 11.4148C12.9222 11.5924 13.2557 11.8931 13.4903 12.279C13.725 12.6649 13.8502 13.1185 13.8502 13.5826C13.8496 14.2047 13.6244 14.8012 13.224 15.2411C12.8237 15.681 12.2809 15.9284 11.7148 15.9291Z" fill="white"/>
<path d="M19.9216 4.55748C17.8924 2.32834 15.1837 1.00414 12.3183 0.840453C9.45286 0.676766 6.6338 1.68519 4.40521 3.67111C2.17662 5.65702 0.696492 8.47964 0.250481 11.5942C-0.195529 14.7087 0.424201 17.8944 1.99006 20.5364L10.0585 34.147C10.2381 34.4499 10.4836 34.6987 10.7728 34.871C11.062 35.0432 11.3857 35.1334 11.7147 35.1334C12.0436 35.1334 12.3674 35.0432 12.6566 34.871C12.9458 34.6987 13.1913 34.4499 13.3708 34.147L21.4396 20.5364C22.8925 18.0856 23.5346 15.1605 23.2583 12.2513C22.9819 9.34212 21.8039 6.62575 19.9216 4.55748ZM19.6503 19.2556L11.7147 32.6416L3.77904 19.2556C1.34996 15.1581 1.87095 9.67466 5.0178 6.21667C5.89725 5.25028 6.9413 4.48371 8.09036 3.9607C9.23943 3.4377 10.471 3.16851 11.7147 3.16851C12.9585 3.16851 14.19 3.4377 15.3391 3.9607C16.4881 4.48371 17.5322 5.25028 18.4116 6.21667C21.5585 9.67466 22.0794 15.1581 19.6503 19.2556Z" fill="white"/>
</svg>
