<svg width="28" height="21" viewBox="0 0 28 21" fill="none" xmlns="http://www.w3.org/2000/svg">
<path d="M3.25248 18.9201C3.51307 19.0588 3.80553 19.1366 4.11453 19.1366H23.9092C24.2182 19.1366 24.5106 19.0588 24.7712 18.9201L16.9739 10.8562L14.4313 13.1571C14.1877 13.3776 13.836 13.3776 13.5924 13.1571L11.0497 10.8562L3.25248 18.9201ZM2.32391 17.8899C2.33002 17.8831 2.33627 17.8763 2.34268 17.8697L10.0228 9.92698L2.37544 3.00673C2.35877 2.99164 2.34294 2.97584 2.32796 2.9594C2.20431 3.24333 2.13507 3.56134 2.13507 3.89711V16.9616C2.13507 17.2936 2.2028 17.6083 2.32391 17.8899ZM25.6998 17.8899C25.8209 17.6083 25.8886 17.2936 25.8886 16.9616V3.89711C25.8886 3.56134 25.8194 3.24333 25.6957 2.9594C25.6808 2.97584 25.6649 2.99164 25.6483 3.00673L18.0009 9.92698L25.681 17.8697C25.6874 17.8763 25.6937 17.8831 25.6998 17.8899ZM24.7596 1.93243C24.5019 1.79753 24.2136 1.72203 23.9092 1.72203H4.11453C3.81013 1.72203 3.52177 1.79753 3.26412 1.93243L14.0118 11.6582L24.7596 1.93243ZM4.11453 0.271973H23.9092C25.7312 0.271973 27.2083 1.895 27.2083 3.89711V16.9616C27.2083 18.9637 25.7312 20.5867 23.9092 20.5867H4.11453C2.29249 20.5867 0.81543 18.9637 0.81543 16.9616V3.89711C0.81543 1.895 2.29249 0.271973 4.11453 0.271973Z" fill="white"/>
</svg>
