<svg width="25" height="28" viewBox="0 0 25 28" fill="none" xmlns="http://www.w3.org/2000/svg">
<path d="M0.739092 3.96832V6.70037C0.739092 17.8346 8.96367 26.9428 19.2059 26.9428H21.6841C23.03 26.9428 24.0427 25.7592 24.0427 24.4005V20.908C24.0427 19.8435 23.4217 18.8592 22.4438 18.501L18.4995 17.0563C17.4613 16.676 16.3441 17.118 15.7658 18.0711L14.8625 19.5599C14.511 20.1394 13.8799 20.3566 13.3278 20.1544L11.4376 19.4621C9.66967 18.8145 8.28938 17.2281 7.78796 15.2078L7.01098 12.0773C6.80524 11.2484 7.23582 10.4368 7.90306 10.1924L8.64969 9.91894C9.68043 9.5414 10.26 8.42647 10.0934 7.32794L9.52154 3.55758C9.34043 2.36349 8.3835 1.426 7.19385 1.426H3.09773C1.75179 1.426 0.739092 2.60962 0.739092 3.96832ZM0.5 3.96832C0.5 2.31917 1.70634 1.06445 3.09773 1.06445H7.19385C8.42706 1.06445 9.53788 2.05171 9.75508 3.48371L10.327 7.25406C10.5313 8.60124 9.8075 9.86508 8.69759 10.2716L7.95097 10.5451C7.37045 10.7577 7.09553 11.3946 7.23586 11.96L8.01284 15.0905C8.47758 16.9629 9.77 18.481 11.4855 19.1094L13.3757 19.8017C13.8837 19.9878 14.4182 19.7655 14.6865 19.3233L15.5898 17.8345C16.2513 16.7442 17.4652 16.3072 18.5474 16.7036L22.4917 18.1483C23.5377 18.5314 24.2818 19.6284 24.2818 20.908V24.4005C24.2818 26.0496 23.0755 27.3043 21.6841 27.3043H19.2059C8.91823 27.3043 0.5 18.125 0.5 6.70037V3.96832Z" fill="white" stroke="white"/>
</svg>
