<svg width="31" height="28" viewBox="0 0 31 28" fill="none" xmlns="http://www.w3.org/2000/svg">
<path d="M29.0021 2.02626C27.8263 2.93758 26.5245 3.6346 25.1468 4.09046C24.4073 3.15619 23.4245 2.494 22.3314 2.19346C21.2383 1.89291 20.0876 1.96851 19.0348 2.41003C17.9821 2.85155 17.0781 3.63769 16.4452 4.66212C15.8123 5.68655 15.4811 6.89985 15.4962 8.13792V9.48707C13.3384 9.54855 11.2004 9.02271 9.27239 7.95638C7.3444 6.89006 5.68634 5.31635 4.44586 3.37541C4.44586 3.37541 -0.465388 15.5178 10.5849 20.9144C8.05627 22.8004 5.04399 23.7462 1.99023 23.6127C13.0405 30.3584 26.5465 23.6127 26.5465 8.09744C26.5453 7.72164 26.5124 7.34677 26.4482 6.97765C27.7013 5.61972 28.5856 3.90524 29.0021 2.02626V2.02626Z" stroke="white" stroke-width="3" stroke-linecap="round" stroke-linejoin="round"/>
</svg>
