<svg width="201" height="64" viewBox="0 0 201 64" fill="none" xmlns="http://www.w3.org/2000/svg">
<path d="M28.2727 28.6328C28.1882 28.339 28.0695 28.0794 27.9165 27.854C27.7636 27.6246 27.5765 27.4315 27.3551 27.2745C27.1378 27.1135 26.8883 26.9908 26.6065 26.9062C26.3288 26.8217 26.021 26.7795 25.6829 26.7795C25.051 26.7795 24.4956 26.9364 24.0167 27.2504C23.5418 27.5643 23.1715 28.0211 22.9059 28.6207C22.6403 29.2164 22.5075 29.9448 22.5075 30.8061C22.5075 31.6674 22.6383 32.3999 22.8999 33.0036C23.1615 33.6072 23.5317 34.0681 24.0107 34.386C24.4896 34.6999 25.055 34.8569 25.707 34.8569C26.2987 34.8569 26.8037 34.7522 27.2223 34.543C27.6449 34.3297 27.9669 34.0298 28.1882 33.6435C28.4136 33.2571 28.5263 32.8003 28.5263 32.2731L29.0575 32.3516H25.87V30.3835H31.0437V31.9411C31.0437 33.0277 30.8143 33.9614 30.3555 34.7422C29.8967 35.5189 29.2648 36.1186 28.4599 36.5412C27.6549 36.9598 26.7333 37.169 25.695 37.169C24.5359 37.169 23.5176 36.9135 22.6403 36.4023C21.7629 35.8872 21.0787 35.1567 20.5877 34.2109C20.1007 33.2611 19.8572 32.1342 19.8572 30.8303C19.8572 29.8281 20.0021 28.9347 20.2919 28.1499C20.5857 27.361 20.9962 26.6929 21.5234 26.1456C22.0507 25.5982 22.6644 25.1817 23.3647 24.896C24.065 24.6102 24.8236 24.4673 25.6406 24.4673C26.3409 24.4673 26.9929 24.57 27.5966 24.7752C28.2003 24.9764 28.7356 25.2622 29.2024 25.6325C29.6733 26.0027 30.0576 26.4434 30.3555 26.9545C30.6533 27.4616 30.8445 28.0211 30.929 28.6328H28.2727ZM37.1847 37.1811C36.2309 37.1811 35.4099 36.9879 34.7217 36.6016C34.0375 36.2112 33.5103 35.6598 33.14 34.9474C32.7697 34.2311 32.5846 33.3839 32.5846 32.4059C32.5846 31.4521 32.7697 30.6149 33.14 29.8945C33.5103 29.1741 34.0315 28.6127 34.7036 28.2102C35.3797 27.8078 36.1726 27.6065 37.0821 27.6065C37.6939 27.6065 38.2633 27.7051 38.7906 27.9023C39.3218 28.0955 39.7847 28.3873 40.1791 28.7777C40.5775 29.1681 40.8874 29.6591 41.1088 30.2507C41.3301 30.8383 41.4408 31.5265 41.4408 32.3153V33.0217H33.6109V31.4279H39.02C39.02 31.0576 38.9395 30.7296 38.7785 30.4439C38.6175 30.1581 38.3941 29.9348 38.1084 29.7738C37.8267 29.6088 37.4987 29.5263 37.1244 29.5263C36.734 29.5263 36.3879 29.6168 36.086 29.7979C35.7882 29.975 35.5548 30.2145 35.3857 30.5163C35.2167 30.8142 35.1302 31.1462 35.1262 31.5124V33.0277C35.1262 33.4865 35.2107 33.8829 35.3797 34.217C35.5528 34.551 35.7963 34.8086 36.1102 34.9897C36.4241 35.1708 36.7964 35.2614 37.227 35.2614C37.5128 35.2614 37.7744 35.2211 38.0118 35.1406C38.2493 35.0601 38.4525 34.9394 38.6215 34.7784C38.7906 34.6174 38.9194 34.4202 39.0079 34.1868L41.3865 34.3438C41.2657 34.9152 41.0182 35.4143 40.6439 35.8409C40.2736 36.2635 39.7947 36.5935 39.2071 36.831C38.6236 37.0644 37.9494 37.1811 37.1847 37.1811ZM48.0512 27.7273V29.6591H42.4671V27.7273H48.0512ZM43.7348 25.5057H46.3066V34.1506C46.3066 34.388 46.3428 34.5732 46.4152 34.706C46.4877 34.8348 46.5883 34.9253 46.7171 34.9776C46.8499 35.0299 47.0028 35.0561 47.1759 35.0561C47.2966 35.0561 47.4173 35.046 47.5381 35.0259C47.6588 35.0018 47.7514 34.9837 47.8158 34.9716L48.2203 36.8853C48.0915 36.9255 47.9104 36.9718 47.6769 37.0241C47.4435 37.0805 47.1598 37.1147 46.8257 37.1268C46.2059 37.1509 45.6626 37.0684 45.1958 36.8793C44.7329 36.6901 44.3727 36.3963 44.1151 35.9979C43.8576 35.5994 43.7308 35.0964 43.7348 34.4886V25.5057ZM53.7093 37V24.6364H58.6596C59.5692 24.6364 60.3278 24.7712 60.9355 25.0408C61.5433 25.3105 62.0001 25.6848 62.3059 26.1637C62.6118 26.6386 62.7647 27.186 62.7647 27.8058C62.7647 28.2887 62.6681 28.7133 62.475 29.0795C62.2818 29.4418 62.0162 29.7396 61.6781 29.973C61.344 30.2024 60.9617 30.3654 60.5311 30.462V30.5827C61.002 30.6029 61.4426 30.7357 61.8532 30.9812C62.2677 31.2267 62.6038 31.5708 62.8613 32.0135C63.1189 32.4522 63.2477 32.9754 63.2477 33.5831C63.2477 34.2391 63.0847 34.8247 62.7587 35.3398C62.4367 35.851 61.9598 36.2554 61.3279 36.5533C60.6961 36.8511 59.9173 37 58.9917 37H53.7093ZM56.3233 34.8629H58.4544C59.1828 34.8629 59.7141 34.7241 60.0481 34.4464C60.3822 34.1647 60.5492 33.7904 60.5492 33.3235C60.5492 32.9814 60.4667 32.6796 60.3017 32.418C60.1367 32.1564 59.9012 31.9511 59.5953 31.8022C59.2935 31.6533 58.9333 31.5788 58.5147 31.5788H56.3233V34.8629ZM56.3233 29.81H58.2612C58.6194 29.81 58.9373 29.7476 59.215 29.6229C59.4967 29.4941 59.7181 29.313 59.8791 29.0795C60.0441 28.8461 60.1266 28.5664 60.1266 28.2404C60.1266 27.7937 59.9676 27.4335 59.6497 27.1598C59.3358 26.8861 58.889 26.7493 58.3095 26.7493H56.3233V29.81ZM69.1262 37.1811C68.1723 37.1811 67.3513 36.9879 66.6631 36.6016C65.9789 36.2112 65.4517 35.6598 65.0814 34.9474C64.7111 34.2311 64.526 33.3839 64.526 32.4059C64.526 31.4521 64.7111 30.6149 65.0814 29.8945C65.4517 29.1741 65.9729 28.6127 66.645 28.2102C67.3211 27.8078 68.114 27.6065 69.0235 27.6065C69.6353 27.6065 70.2048 27.7051 70.732 27.9023C71.2632 28.0955 71.7261 28.3873 72.1205 28.7777C72.5189 29.1681 72.8288 29.6591 73.0502 30.2507C73.2715 30.8383 73.3822 31.5265 73.3822 32.3153V33.0217H65.5523V31.4279H70.9614C70.9614 31.0576 70.8809 30.7296 70.7199 30.4439C70.5589 30.1581 70.3356 29.9348 70.0498 29.7738C69.7681 29.6088 69.4401 29.5263 69.0658 29.5263C68.6754 29.5263 68.3293 29.6168 68.0274 29.7979C67.7296 29.975 67.4962 30.2145 67.3271 30.5163C67.1581 30.8142 67.0716 31.1462 67.0676 31.5124V33.0277C67.0676 33.4865 67.1521 33.8829 67.3211 34.217C67.4942 34.551 67.7377 34.8086 68.0516 34.9897C68.3655 35.1708 68.7378 35.2614 69.1684 35.2614C69.4542 35.2614 69.7158 35.2211 69.9532 35.1406C70.1907 35.0601 70.3939 34.9394 70.5629 34.7784C70.732 34.6174 70.8608 34.4202 70.9493 34.1868L73.3279 34.3438C73.2071 34.9152 72.9596 35.4143 72.5853 35.8409C72.2151 36.2635 71.7361 36.5935 71.1485 36.831C70.565 37.0644 69.8908 37.1811 69.1262 37.1811ZM82.7757 30.3714L80.4213 30.5163C80.381 30.3151 80.2945 30.134 80.1617 29.973C80.0289 29.808 79.8538 29.6772 79.6365 29.5806C79.4231 29.48 79.1676 29.4297 78.8698 29.4297C78.4713 29.4297 78.1353 29.5142 77.8616 29.6832C77.5879 29.8482 77.4511 30.0696 77.4511 30.3473C77.4511 30.5687 77.5396 30.7558 77.7167 30.9087C77.8938 31.0617 78.1977 31.1844 78.6283 31.277L80.3066 31.6151C81.2081 31.8002 81.8802 32.098 82.3229 32.5085C82.7656 32.919 82.987 33.4583 82.987 34.1264C82.987 34.7341 82.8079 35.2674 82.4497 35.7262C82.0955 36.185 81.6085 36.5432 80.9887 36.8008C80.373 37.0543 79.6626 37.1811 78.8577 37.1811C77.6302 37.1811 76.6522 36.9255 75.9237 36.4144C75.1993 35.8993 74.7747 35.199 74.6499 34.3136L77.1794 34.1808C77.2559 34.555 77.441 34.8408 77.7348 35.038C78.0286 35.2312 78.4049 35.3278 78.8637 35.3278C79.3145 35.3278 79.6767 35.2412 79.9504 35.0682C80.2281 34.8911 80.3689 34.6637 80.373 34.386C80.3689 34.1526 80.2703 33.9614 80.0771 33.8125C79.884 33.6596 79.5861 33.5429 79.1837 33.4624L77.5779 33.1424C76.6723 32.9613 75.9982 32.6474 75.5555 32.2006C75.1168 31.7539 74.8975 31.1844 74.8975 30.4922C74.8975 29.8965 75.0584 29.3834 75.3804 28.9528C75.7064 28.5221 76.1632 28.1901 76.7508 27.9567C77.3424 27.7232 78.0347 27.6065 78.8275 27.6065C79.9987 27.6065 80.9203 27.854 81.5924 28.3491C82.2686 28.8441 82.663 29.5182 82.7757 30.3714ZM89.5385 27.7273V29.6591H83.9544V27.7273H89.5385ZM85.2221 25.5057H87.7939V34.1506C87.7939 34.388 87.8301 34.5732 87.9025 34.706C87.975 34.8348 88.0756 34.9253 88.2044 34.9776C88.3372 35.0299 88.4901 35.0561 88.6632 35.0561C88.7839 35.0561 88.9047 35.046 89.0254 35.0259C89.1461 35.0018 89.2387 34.9837 89.3031 34.9716L89.7076 36.8853C89.5788 36.9255 89.3977 36.9718 89.1642 37.0241C88.9308 37.0805 88.6471 37.1147 88.313 37.1268C87.6932 37.1509 87.1499 37.0684 86.6831 36.8793C86.2202 36.6901 85.86 36.3963 85.6025 35.9979C85.3449 35.5994 85.2181 35.0964 85.2221 34.4886V25.5057ZM106.105 28.9648H103.461C103.413 28.6228 103.314 28.3189 103.165 28.0533C103.016 27.7836 102.825 27.5542 102.592 27.3651C102.358 27.1759 102.089 27.031 101.783 26.9304C101.481 26.8298 101.153 26.7795 100.799 26.7795C100.159 26.7795 99.6016 26.9384 99.1267 27.2564C98.6518 27.5703 98.2835 28.0291 98.0219 28.6328C97.7603 29.2325 97.6295 29.9609 97.6295 30.8182C97.6295 31.6996 97.7603 32.4401 98.0219 33.0398C98.2876 33.6394 98.6578 34.0922 99.1327 34.3981C99.6076 34.704 100.157 34.8569 100.781 34.8569C101.131 34.8569 101.455 34.8106 101.753 34.718C102.055 34.6255 102.322 34.4906 102.556 34.3136C102.789 34.1325 102.982 33.9131 103.135 33.6555C103.292 33.398 103.401 33.1042 103.461 32.7741L106.105 32.7862C106.037 33.3537 105.866 33.901 105.592 34.4283C105.323 34.9515 104.958 35.4203 104.5 35.8349C104.045 36.2454 103.501 36.5714 102.87 36.8129C102.242 37.0503 101.531 37.169 100.739 37.169C99.6358 37.169 98.6498 36.9195 97.7805 36.4205C96.9152 35.9214 96.231 35.199 95.7279 34.2532C95.2288 33.3074 94.9793 32.1624 94.9793 30.8182C94.9793 29.4699 95.2329 28.3229 95.74 27.3771C96.2471 26.4313 96.9353 25.7109 97.8046 25.2159C98.6739 24.7169 99.6519 24.4673 100.739 24.4673C101.455 24.4673 102.119 24.5679 102.731 24.7692C103.347 24.9704 103.892 25.2642 104.367 25.6506C104.842 26.0329 105.228 26.5018 105.526 27.0572C105.828 27.6126 106.021 28.2485 106.105 28.9648ZM112.121 37.1811C111.183 37.1811 110.372 36.9819 109.688 36.5835C109.008 36.181 108.483 35.6216 108.113 34.9052C107.742 34.1848 107.557 33.3497 107.557 32.3999C107.557 31.442 107.742 30.6049 108.113 29.8885C108.483 29.1681 109.008 28.6087 109.688 28.2102C110.372 27.8078 111.183 27.6065 112.121 27.6065C113.059 27.6065 113.868 27.8078 114.548 28.2102C115.232 28.6087 115.759 29.1681 116.13 29.8885C116.5 30.6049 116.685 31.442 116.685 32.3999C116.685 33.3497 116.5 34.1848 116.13 34.9052C115.759 35.6216 115.232 36.181 114.548 36.5835C113.868 36.9819 113.059 37.1811 112.121 37.1811ZM112.133 35.1889C112.56 35.1889 112.916 35.0682 113.202 34.8267C113.488 34.5812 113.703 34.2472 113.848 33.8246C113.997 33.402 114.071 32.921 114.071 32.3817C114.071 31.8424 113.997 31.3615 113.848 30.9389C113.703 30.5163 113.488 30.1823 113.202 29.9368C112.916 29.6913 112.56 29.5685 112.133 29.5685C111.703 29.5685 111.34 29.6913 111.047 29.9368C110.757 30.1823 110.537 30.5163 110.389 30.9389C110.244 31.3615 110.171 31.8424 110.171 32.3817C110.171 32.921 110.244 33.402 110.389 33.8246C110.537 34.2472 110.757 34.5812 111.047 34.8267C111.34 35.0682 111.703 35.1889 112.133 35.1889ZM121.002 37.1751C120.41 37.1751 119.883 37.0724 119.42 36.8672C118.957 36.6579 118.591 36.35 118.321 35.9435C118.055 35.533 117.923 35.0219 117.923 34.4102C117.923 33.895 118.017 33.4624 118.206 33.1122C118.396 32.7621 118.653 32.4804 118.979 32.267C119.305 32.0537 119.675 31.8928 120.09 31.7841C120.508 31.6754 120.947 31.599 121.406 31.5547C121.945 31.4983 122.38 31.446 122.71 31.3977C123.04 31.3454 123.279 31.2689 123.428 31.1683C123.577 31.0677 123.652 30.9188 123.652 30.7216V30.6854C123.652 30.303 123.531 30.0072 123.29 29.7979C123.052 29.5887 122.714 29.484 122.275 29.484C121.812 29.484 121.444 29.5866 121.171 29.7919C120.897 29.9931 120.716 30.2467 120.627 30.5526L118.249 30.3594C118.369 29.7959 118.607 29.3089 118.961 28.8984C119.315 28.4839 119.772 28.166 120.331 27.9446C120.895 27.7192 121.547 27.6065 122.287 27.6065C122.803 27.6065 123.296 27.6669 123.766 27.7876C124.241 27.9084 124.662 28.0955 125.028 28.3491C125.398 28.6026 125.69 28.9286 125.903 29.3271C126.117 29.7215 126.223 30.1944 126.223 30.7457V37H123.785V35.7141H123.712C123.563 36.0039 123.364 36.2595 123.114 36.4808C122.865 36.6982 122.565 36.8692 122.215 36.994C121.865 37.1147 121.46 37.1751 121.002 37.1751ZM121.738 35.4002C122.116 35.4002 122.45 35.3258 122.74 35.1768C123.03 35.0239 123.257 34.8187 123.422 34.5611C123.587 34.3035 123.67 34.0117 123.67 33.6857V32.7017C123.589 32.754 123.479 32.8023 123.338 32.8466C123.201 32.8868 123.046 32.9251 122.873 32.9613C122.7 32.9935 122.527 33.0237 122.354 33.0518C122.181 33.076 122.024 33.0981 121.883 33.1183C121.581 33.1625 121.317 33.233 121.092 33.3295C120.867 33.4261 120.692 33.5569 120.567 33.7219C120.442 33.8829 120.38 34.0842 120.38 34.3256C120.38 34.6758 120.506 34.9434 120.76 35.1286C121.018 35.3097 121.344 35.4002 121.738 35.4002ZM132.408 37.1811C131.458 37.1811 130.641 36.9799 129.957 36.5774C129.277 36.1709 128.754 35.6075 128.388 34.8871C128.025 34.1667 127.844 33.3376 127.844 32.3999C127.844 31.45 128.027 30.617 128.394 29.9006C128.764 29.1802 129.289 28.6187 129.969 28.2163C130.65 27.8098 131.458 27.6065 132.396 27.6065C133.205 27.6065 133.914 27.7534 134.521 28.0472C135.129 28.341 135.61 28.7536 135.964 29.2848C136.318 29.8161 136.513 30.4399 136.55 31.1562H134.123C134.054 30.6934 133.873 30.3211 133.579 30.0394C133.29 29.7537 132.909 29.6108 132.438 29.6108C132.04 29.6108 131.692 29.7195 131.394 29.9368C131.1 30.1501 130.871 30.462 130.706 30.8725C130.541 31.283 130.458 31.7801 130.458 32.3636C130.458 32.9553 130.539 33.4583 130.7 33.8729C130.865 34.2874 131.096 34.6033 131.394 34.8207C131.692 35.038 132.04 35.1467 132.438 35.1467C132.732 35.1467 132.996 35.0863 133.229 34.9656C133.467 34.8448 133.662 34.6697 133.815 34.4403C133.972 34.2069 134.074 33.9272 134.123 33.6012H136.55C136.509 34.3095 136.316 34.9334 135.97 35.4727C135.628 36.0079 135.155 36.4265 134.551 36.7283C133.948 37.0302 133.233 37.1811 132.408 37.1811ZM140.768 31.6392V37H138.196V24.6364H140.695V29.3633H140.804C141.013 28.8159 141.352 28.3873 141.818 28.0774C142.285 27.7635 142.871 27.6065 143.575 27.6065C144.219 27.6065 144.78 27.7474 145.259 28.0291C145.742 28.3068 146.117 28.7073 146.382 29.2305C146.652 29.7496 146.785 30.3714 146.781 31.0959V37H144.209V31.5547C144.213 30.9832 144.068 30.5385 143.774 30.2205C143.485 29.9026 143.078 29.7436 142.555 29.7436C142.205 29.7436 141.895 29.8181 141.625 29.967C141.36 30.1159 141.15 30.3332 140.997 30.619C140.848 30.9007 140.772 31.2408 140.768 31.6392ZM148.805 37V27.7273H151.376V37H148.805ZM150.097 26.532C149.714 26.532 149.386 26.4052 149.112 26.1516C148.843 25.8941 148.708 25.5862 148.708 25.228C148.708 24.8738 148.843 24.57 149.112 24.3164C149.386 24.0588 149.714 23.93 150.097 23.93C150.479 23.93 150.805 24.0588 151.074 24.3164C151.348 24.57 151.485 24.8738 151.485 25.228C151.485 25.5862 151.348 25.8941 151.074 26.1516C150.805 26.4052 150.479 26.532 150.097 26.532ZM156.008 31.6392V37H153.436V27.7273H155.887V29.3633H155.996C156.201 28.824 156.545 28.3974 157.028 28.0835C157.511 27.7655 158.097 27.6065 158.785 27.6065C159.429 27.6065 159.991 27.7474 160.469 28.0291C160.948 28.3108 161.321 28.7133 161.586 29.2365C161.852 29.7557 161.985 30.3755 161.985 31.0959V37H159.413V31.5547C159.417 30.9872 159.272 30.5445 158.978 30.2266C158.685 29.9046 158.28 29.7436 157.765 29.7436C157.419 29.7436 157.113 29.8181 156.847 29.967C156.586 30.1159 156.38 30.3332 156.232 30.619C156.087 30.9007 156.012 31.2408 156.008 31.6392ZM168.189 40.6705C167.356 40.6705 166.642 40.5558 166.046 40.3263C165.454 40.101 164.984 39.7931 164.633 39.4027C164.283 39.0123 164.056 38.5736 163.951 38.0866L166.33 37.7667C166.402 37.9518 166.517 38.1249 166.674 38.2859C166.831 38.4469 167.038 38.5756 167.296 38.6722C167.557 38.7728 167.875 38.8232 168.25 38.8232C168.809 38.8232 169.27 38.6863 169.632 38.4126C169.998 38.143 170.181 37.6902 170.181 37.0543V35.358H170.073C169.96 35.6155 169.791 35.859 169.566 36.0884C169.34 36.3178 169.05 36.505 168.696 36.6499C168.342 36.7947 167.92 36.8672 167.429 36.8672C166.732 36.8672 166.098 36.7062 165.527 36.3842C164.959 36.0582 164.507 35.5612 164.169 34.8931C163.835 34.221 163.668 33.3718 163.668 32.3455C163.668 31.2951 163.839 30.4177 164.181 29.7134C164.523 29.0091 164.978 28.4819 165.545 28.1317C166.117 27.7816 166.742 27.6065 167.422 27.6065C167.942 27.6065 168.376 27.6951 168.726 27.8722C169.077 28.0452 169.358 28.2625 169.572 28.5241C169.789 28.7817 169.956 29.0353 170.073 29.2848H170.169V27.7273H172.723V37.0906C172.723 37.8794 172.53 38.5394 172.143 39.0707C171.757 39.6019 171.222 40.0004 170.538 40.266C169.857 40.5356 169.075 40.6705 168.189 40.6705ZM168.244 34.9354C168.658 34.9354 169.008 34.8327 169.294 34.6275C169.584 34.4182 169.805 34.1204 169.958 33.734C170.115 33.3436 170.193 32.8768 170.193 32.3335C170.193 31.7901 170.117 31.3192 169.964 30.9208C169.811 30.5183 169.59 30.2064 169.3 29.9851C169.01 29.7637 168.658 29.6531 168.244 29.6531C167.821 29.6531 167.465 29.7678 167.175 29.9972C166.885 30.2225 166.666 30.5365 166.517 30.9389C166.368 31.3414 166.294 31.8062 166.294 32.3335C166.294 32.8687 166.368 33.3316 166.517 33.7219C166.67 34.1083 166.889 34.4081 167.175 34.6214C167.465 34.8307 167.821 34.9354 168.244 34.9354Z" fill="#005EE1"/>
<rect x="4" y="4" width="193" height="56" stroke="#005EE1" stroke-width="2"/>
<circle cx="5" cy="5" r="5" fill="#005EE1"/>
<circle cx="5" cy="59" r="5" fill="#005EE1"/>
<circle cx="196" cy="5" r="5" fill="#005EE1"/>
<circle cx="196" cy="59" r="5" fill="#005EE1"/>
</svg>
