<svg width="250" height="198" viewBox="0 0 250 198" fill="none" xmlns="http://www.w3.org/2000/svg">
<circle cx="6.57894" cy="6.57906" r="6.57894" fill="#F5F5F5"/>
<circle cx="6.57894" cy="32.8946" r="6.57894" fill="#F5F5F5"/>
<circle cx="6.57894" cy="59.2105" r="6.57894" fill="#F5F5F5"/>
<circle cx="6.57894" cy="85.5262" r="6.57894" fill="#F5F5F5"/>
<circle cx="6.57894" cy="111.842" r="6.57894" fill="#F5F5F5"/>
<circle cx="6.57894" cy="138.158" r="6.57894" fill="#F5F5F5"/>
<circle cx="6.57894" cy="164.473" r="6.57894" fill="#F5F5F5"/>
<circle cx="6.57894" cy="190.789" r="6.57894" fill="#F5F5F5"/>
<circle cx="32.8944" cy="6.57894" r="6.57894" fill="#F5F5F5"/>
<circle cx="32.8944" cy="32.8946" r="6.57894" fill="#F5F5F5"/>
<circle cx="32.8944" cy="59.2105" r="6.57894" fill="#F5F5F5"/>
<circle cx="32.8944" cy="85.5262" r="6.57894" fill="#F5F5F5"/>
<circle cx="32.8944" cy="111.842" r="6.57894" fill="#F5F5F5"/>
<circle cx="32.8944" cy="138.158" r="6.57894" fill="#F5F5F5"/>
<circle cx="32.8944" cy="164.473" r="6.57894" fill="#F5F5F5"/>
<circle cx="32.8944" cy="190.789" r="6.57894" fill="#F5F5F5"/>
<circle cx="59.2108" cy="6.57894" r="6.57894" fill="#F5F5F5"/>
<circle cx="59.2108" cy="32.8946" r="6.57894" fill="#F5F5F5"/>
<circle cx="59.2108" cy="59.2105" r="6.57894" fill="#F5F5F5"/>
<circle cx="59.2108" cy="85.5262" r="6.57894" fill="#F5F5F5"/>
<circle cx="59.2108" cy="111.842" r="6.57894" fill="#F5F5F5"/>
<circle cx="59.2108" cy="138.158" r="6.57894" fill="#F5F5F5"/>
<circle cx="59.2108" cy="164.473" r="6.57894" fill="#F5F5F5"/>
<circle cx="59.2108" cy="190.789" r="6.57894" fill="#F5F5F5"/>
<circle cx="85.5262" cy="6.57894" r="6.57894" fill="#F5F5F5"/>
<circle cx="85.5262" cy="32.8946" r="6.57894" fill="#F5F5F5"/>
<circle cx="85.5262" cy="59.2105" r="6.57894" fill="#F5F5F5"/>
<circle cx="85.5262" cy="85.5262" r="6.57894" fill="#F5F5F5"/>
<circle cx="85.5262" cy="111.842" r="6.57894" fill="#F5F5F5"/>
<circle cx="85.5262" cy="138.158" r="6.57894" fill="#F5F5F5"/>
<circle cx="85.5262" cy="164.473" r="6.57894" fill="#F5F5F5"/>
<circle cx="85.5262" cy="190.789" r="6.57894" fill="#F5F5F5"/>
<circle cx="111.841" cy="6.57894" r="6.57894" fill="#F5F5F5"/>
<circle cx="111.841" cy="32.8946" r="6.57894" fill="#F5F5F5"/>
<circle cx="111.841" cy="59.2105" r="6.57894" fill="#F5F5F5"/>
<circle cx="111.841" cy="85.5262" r="6.57894" fill="#F5F5F5"/>
<circle cx="111.841" cy="111.842" r="6.57894" fill="#F5F5F5"/>
<circle cx="111.841" cy="138.158" r="6.57894" fill="#F5F5F5"/>
<circle cx="111.841" cy="164.473" r="6.57894" fill="#F5F5F5"/>
<circle cx="111.841" cy="190.789" r="6.57894" fill="#F5F5F5"/>
<circle cx="138.158" cy="6.57894" r="6.57894" fill="#F5F5F5"/>
<circle cx="138.158" cy="32.8946" r="6.57894" fill="#F5F5F5"/>
<circle cx="138.158" cy="59.2105" r="6.57894" fill="#F5F5F5"/>
<circle cx="138.158" cy="85.5262" r="6.57894" fill="#F5F5F5"/>
<circle cx="138.158" cy="111.842" r="6.57894" fill="#F5F5F5"/>
<circle cx="138.158" cy="138.158" r="6.57894" fill="#F5F5F5"/>
<circle cx="138.158" cy="164.473" r="6.57894" fill="#F5F5F5"/>
<circle cx="138.158" cy="190.789" r="6.57894" fill="#F5F5F5"/>
<circle cx="164.472" cy="6.57894" r="6.57894" fill="#F5F5F5"/>
<circle cx="164.472" cy="32.8946" r="6.57894" fill="#F5F5F5"/>
<circle cx="164.472" cy="59.2105" r="6.57894" fill="#F5F5F5"/>
<circle cx="164.472" cy="85.5262" r="6.57894" fill="#F5F5F5"/>
<circle cx="164.472" cy="111.842" r="6.57894" fill="#F5F5F5"/>
<circle cx="164.472" cy="138.158" r="6.57894" fill="#F5F5F5"/>
<circle cx="164.472" cy="164.473" r="6.57894" fill="#F5F5F5"/>
<circle cx="164.472" cy="190.789" r="6.57894" fill="#F5F5F5"/>
<circle cx="190.789" cy="6.57894" r="6.57894" fill="#F5F5F5"/>
<circle cx="190.789" cy="32.8946" r="6.57894" fill="#F5F5F5"/>
<circle cx="190.789" cy="59.2105" r="6.57894" fill="#F5F5F5"/>
<circle cx="190.789" cy="85.5262" r="6.57894" fill="#F5F5F5"/>
<circle cx="190.789" cy="111.842" r="6.57894" fill="#F5F5F5"/>
<circle cx="190.789" cy="138.158" r="6.57894" fill="#F5F5F5"/>
<circle cx="190.789" cy="164.473" r="6.57894" fill="#F5F5F5"/>
<circle cx="190.789" cy="190.789" r="6.57894" fill="#F5F5F5"/>
<circle cx="217.104" cy="6.57894" r="6.57894" fill="#F5F5F5"/>
<circle cx="217.104" cy="32.8946" r="6.57894" fill="#F5F5F5"/>
<circle cx="217.104" cy="59.2105" r="6.57894" fill="#F5F5F5"/>
<circle cx="217.104" cy="85.5262" r="6.57894" fill="#F5F5F5"/>
<circle cx="217.104" cy="111.842" r="6.57894" fill="#F5F5F5"/>
<circle cx="217.104" cy="138.158" r="6.57894" fill="#F5F5F5"/>
<circle cx="217.104" cy="164.473" r="6.57894" fill="#F5F5F5"/>
<circle cx="217.104" cy="190.789" r="6.57894" fill="#F5F5F5"/>
<circle cx="243.42" cy="6.57894" r="6.57894" fill="#F5F5F5"/>
<circle cx="243.42" cy="32.8946" r="6.57894" fill="#F5F5F5"/>
<circle cx="243.42" cy="59.2105" r="6.57894" fill="#F5F5F5"/>
<circle cx="243.42" cy="85.5262" r="6.57894" fill="#F5F5F5"/>
<circle cx="243.42" cy="111.842" r="6.57894" fill="#F5F5F5"/>
<circle cx="243.42" cy="138.158" r="6.57894" fill="#F5F5F5"/>
<circle cx="243.42" cy="164.473" r="6.57894" fill="#F5F5F5"/>
<circle cx="243.42" cy="190.789" r="6.57894" fill="#F5F5F5"/>
</svg>
