<svg width="62" height="62" viewBox="0 0 62 62" fill="none" xmlns="http://www.w3.org/2000/svg">
<path d="M18.0833 36.1667C23.7822 36.1667 28.4167 31.5322 28.4167 25.8333C28.4167 20.1345 23.7822 15.5 18.0833 15.5C12.3845 15.5 7.75 20.1345 7.75 25.8333C7.75 31.5322 12.3845 36.1667 18.0833 36.1667ZM18.0833 18.0833C22.3562 18.0833 25.8333 21.5605 25.8333 25.8333C25.8333 30.1062 22.3562 33.5833 18.0833 33.5833C13.8105 33.5833 10.3333 30.1062 10.3333 25.8333C10.3333 21.5605 13.8105 18.0833 18.0833 18.0833ZM36.1667 47.7917V62H33.5833V47.7917C33.5833 45.6552 31.8447 43.9167 29.7083 43.9167H6.45833C4.32192 43.9167 2.58333 45.6552 2.58333 47.7917V62H0V47.7917C0 44.2292 2.8985 41.3333 6.45833 41.3333H29.7083C33.2682 41.3333 36.1667 44.2292 36.1667 47.7917ZM55.5417 0H19.375C15.8152 0 12.9167 2.89592 12.9167 6.45833V11.2349C13.7485 10.9404 14.6113 10.7105 15.5 10.5581V6.46092C15.5 4.3245 17.2386 2.58592 19.375 2.58592H55.5417C57.6781 2.58592 59.4167 4.3245 59.4167 6.46092V43.9192H54.25V36.1693H41.3333V46.5026H62V6.45833C62 2.89592 59.1015 0 55.5417 0ZM43.9167 43.9167V38.75H51.6667V43.9167H43.9167Z" fill="#FAB452"/>
</svg>
