<svg width="62" height="59" viewBox="0 0 62 59" fill="none" xmlns="http://www.w3.org/2000/svg">
<path d="M20.6665 29.5616C29.2148 29.5616 36.1665 23.0117 36.1665 14.9576C36.1665 6.90344 29.2148 0.353516 20.6665 0.353516C12.1183 0.353516 5.1665 6.90344 5.1665 14.9576C5.1665 23.0117 12.1183 29.5616 20.6665 29.5616ZM20.6665 2.78753C27.7888 2.78753 33.5832 8.24701 33.5832 14.9576C33.5832 21.6681 27.7888 27.1276 20.6665 27.1276C13.5443 27.1276 7.74984 21.6681 7.74984 14.9576C7.74984 8.24701 13.5443 2.78753 20.6665 2.78753Z" fill="#FAB452"/>
<path d="M20.6667 34.4296C9.27158 34.4296 0 43.1653 0 53.9017V57.5527C0 58.2245 0.578667 58.7697 1.29167 58.7697C2.00467 58.7697 2.58333 58.2245 2.58333 57.5527V53.9017C2.58333 44.5064 10.695 36.8636 20.6667 36.8636C30.6383 36.8636 38.75 44.5064 38.75 53.9017V57.5527C38.75 58.2245 39.3287 58.7697 40.0417 58.7697C40.7547 58.7697 41.3333 58.2245 41.3333 57.5527V53.9017C41.3333 43.1653 32.0617 34.4296 20.6667 34.4296Z" fill="#FAB452"/>
<path d="M61.5892 21.3712C61.0673 20.9136 60.251 20.938 59.7628 21.4296L47.9466 33.3563C47.2155 34.0475 46.2416 34.4297 45.2031 34.4297C44.1697 34.4297 43.1958 34.05 42.4312 33.3319L35.7584 27.4562C35.2392 26.9986 34.4177 27.023 33.932 27.5146C33.4463 28.0063 33.4722 28.7755 33.994 29.2355L40.6358 35.082C41.8551 36.2333 43.4774 36.8637 45.2031 36.8637H45.2083C46.9339 36.8637 48.5563 36.2284 49.8066 35.0455L61.6537 23.0896C62.1394 22.5979 62.111 21.8264 61.5917 21.3688L61.5892 21.3712Z" fill="#FAB452"/>
</svg>
