<svg width="60" height="60" viewBox="0 0 60 60" fill="none" xmlns="http://www.w3.org/2000/svg">
<path d="M16.2501 12.5C19.6951 12.5 22.5001 9.6975 22.5001 6.25C22.5001 2.8025 19.6951 0 16.2501 0C12.8051 0 10.0001 2.8025 10.0001 6.25C10.0001 9.6975 12.8051 12.5 16.2501 12.5ZM16.2501 2.5C18.3176 2.5 20.0001 4.1825 20.0001 6.25C20.0001 8.3175 18.3176 10 16.2501 10C14.1826 10 12.5001 8.3175 12.5001 6.25C12.5001 4.1825 14.1826 2.5 16.2501 2.5ZM27.5001 31.25C27.5001 31.94 26.9401 32.5 26.2501 32.5C25.5601 32.5 25.0001 31.94 25.0001 31.25V23.75C25.0001 20.3025 22.1951 17.5 18.7501 17.5H13.7501C10.3051 17.5 7.50006 20.3025 7.50006 23.75V33.75C7.50006 37.1975 10.3051 40 13.7501 40H18.7501C19.4651 40 20.1651 39.88 20.8326 39.6425C21.2126 39.5125 21.6401 39.5675 21.9701 39.8C22.3026 40.035 22.4976 40.415 22.4976 40.82V58.7475C22.4976 59.4375 21.9376 59.9975 21.2476 59.9975C20.5576 59.9975 19.9976 59.4375 19.9976 58.7475V42.41C19.5851 42.4675 19.1676 42.4975 18.7476 42.4975H13.7476C13.3226 42.4975 12.9051 42.4675 12.4976 42.4075V58.7475C12.4976 59.4375 11.9376 59.9975 11.2476 59.9975C10.5576 59.9975 9.99756 59.4375 9.99756 58.7475V41.6525C7.04506 40.245 4.99756 37.23 4.99756 33.7475V23.7475C4.99756 18.9225 8.92256 14.9975 13.7476 14.9975H18.7476C23.5726 14.9975 27.4976 18.9225 27.4976 23.7475V31.2475L27.5001 31.25ZM43.7501 27.5C34.7901 27.5 27.5001 34.79 27.5001 43.75C27.5001 52.71 34.7901 60 43.7501 60C52.7101 60 60.0001 52.71 60.0001 43.75C60.0001 34.79 52.7101 27.5 43.7501 27.5ZM43.7501 57.5C36.1676 57.5 30.0001 51.33 30.0001 43.75C30.0001 36.17 36.1676 30 43.7501 30C51.3326 30 57.5001 36.17 57.5001 43.75C57.5001 51.33 51.3326 57.5 43.7501 57.5ZM46.2501 52.5C46.2501 53.88 45.1301 55 43.7501 55C42.3701 55 41.2501 53.88 41.2501 52.5C41.2501 51.12 42.3701 50 43.7501 50C45.1301 50 46.2501 51.12 46.2501 52.5ZM49.9026 37.6275C50.3676 40.2825 49.1076 42.935 46.7651 44.2275C45.9101 44.6975 45.2976 45.26 45.0826 46.47C44.9751 47.075 44.4476 47.5 43.8526 47.5C43.7801 47.5 43.7051 47.4925 43.6326 47.48C42.9526 47.36 42.5001 46.71 42.6201 46.03C43.0401 43.6725 44.4951 42.6225 45.5551 42.0375C46.9826 41.25 47.7226 39.6875 47.4376 38.0575C47.1751 36.555 45.9401 35.3225 44.4401 35.06C43.3001 34.86 42.2026 35.1475 41.3401 35.875C40.4876 36.5875 39.9976 37.6375 39.9976 38.7475C39.9976 39.4375 39.4376 39.9975 38.7476 39.9975C38.0576 39.9975 37.4976 39.4375 37.4976 38.7475C37.4976 36.895 38.3126 35.15 39.7326 33.9575C41.1501 32.7675 43.0251 32.27 44.8726 32.5975C47.3876 33.0375 49.4576 35.1075 49.9026 37.6275Z" fill="#FAB452"/>
</svg>
