<svg width="245" height="259" viewBox="0 0 245 259" fill="none" xmlns="http://www.w3.org/2000/svg">
<g clip-path="url(#clip0_378_42)">
<path d="M58.124 136.787C58.124 136.787 63.7435 144.949 64.8673 148.045C71.33 149.453 100.55 162.4 114.88 172.243C114.882 172.257 92.1212 145.518 58.124 136.787Z" fill="white"/>
<path d="M17.2476 148.333L39.7947 168.598C39.7947 168.598 88.3952 163.109 114.882 175.988C108.065 169.443 74.3502 146.01 17.2476 148.333Z" fill="white"/>
<path d="M185.964 136.787C185.964 136.787 180.344 144.949 179.22 148.045C172.758 149.453 143.538 162.4 129.208 172.243C129.202 172.257 151.966 145.518 185.964 136.787Z" fill="white"/>
<path d="M226.837 148.333L204.29 168.598C204.29 168.598 155.689 163.109 129.202 175.988C136.022 169.443 169.737 146.01 226.837 148.333Z" fill="white"/>
<path d="M10.9219 175.332C10.9219 175.332 81.9422 175.965 123.021 193.063C141.565 182.297 186.799 176.739 234.072 175.332C188.486 167.379 146.2 168.87 122.495 180.403C95.9134 169.772 59.3893 166.675 10.9219 175.332Z" fill="white"/>
<path d="M155.294 67.5988C152.343 64.6344 148.835 62.2836 144.974 60.6814C141.112 59.0792 136.973 58.2572 132.793 58.2627H99.7104V138.27C99.7103 140.404 100.13 142.518 100.945 144.49C101.76 146.462 102.955 148.254 104.462 149.764C105.969 151.273 107.757 152.471 109.726 153.287C111.695 154.104 113.804 154.525 115.935 154.525H124.154V122.016H132.793C150.368 122.016 164.615 107.746 164.615 90.1371C164.62 85.9505 163.799 81.8042 162.199 77.9364C160.6 74.0686 158.253 70.5555 155.294 67.5988ZM127.105 103.297H124.012V76.8408H127.105C130.607 76.8408 133.965 78.2344 136.442 80.7152C138.918 83.196 140.309 86.5606 140.309 90.069C140.309 93.5773 138.918 96.942 136.442 99.4227C133.965 101.904 130.607 103.297 127.105 103.297Z" fill="white"/>
<path d="M123.704 0H121.297C119.303 0 117.687 1.61929 117.687 3.61678V18.5578C117.687 20.5553 119.303 22.1745 121.297 22.1745H123.704C125.698 22.1745 127.315 20.5553 127.315 18.5578V3.61678C127.315 1.61929 125.698 0 123.704 0Z" fill="#F9C30B"/>
<path d="M105.921 1.37683L103.553 1.80754C101.591 2.16436 100.289 4.04686 100.645 6.01222L103.31 20.7129C103.666 22.6783 105.545 23.9822 107.507 23.6254L109.875 23.1947C111.837 22.8379 113.138 20.9554 112.782 18.99L110.118 4.28938C109.762 2.32401 107.883 1.02002 105.921 1.37683Z" fill="#F9C30B"/>
<path d="M88.6698 5.93482L86.4177 6.78148C84.5509 7.48331 83.6055 9.56829 84.3061 11.4384L89.5462 25.4268C90.2468 27.297 92.3281 28.2441 94.1949 27.5423L96.447 26.6956C98.3138 25.9938 99.2592 23.9088 98.5586 22.0386L93.3185 8.05024C92.6179 6.1801 90.5366 5.23299 88.6698 5.93482Z" fill="#F9C30B"/>
<path d="M72.5064 13.4844L70.4415 14.7205C68.7298 15.7451 68.1714 17.9657 69.1942 19.6804L76.8443 32.5061C77.8671 34.2208 80.0838 34.7802 81.7954 33.7556L83.8603 32.5196C85.5719 31.495 86.1303 29.2743 85.1076 27.5596L77.4574 14.734C76.4347 13.0193 74.218 12.4598 72.5064 13.4844Z" fill="#F9C30B"/>
<path d="M57.9514 23.8198L56.1398 25.4052C54.6382 26.7193 54.4843 29.0042 55.7961 30.5085L65.6082 41.7606C66.9201 43.2649 69.2008 43.4191 70.7024 42.1049L72.514 40.5196C74.0156 39.2054 74.1695 36.9206 72.8577 35.4162L63.0456 24.1641C61.7338 22.6598 59.453 22.5057 57.9514 23.8198Z" fill="#F9C30B"/>
<path d="M45.4693 36.5795L43.9687 38.4647C42.7255 40.0264 42.9815 42.3021 44.5405 43.5474L56.2012 52.8627C57.7601 54.1081 60.0317 53.8516 61.2748 52.2899L62.7754 50.4047C64.0186 48.843 63.7626 46.5673 62.2037 45.322L50.543 36.0067C48.984 34.7613 46.7125 35.0178 45.4693 36.5795Z" fill="#F9C30B"/>
<path d="M35.4655 51.3805L34.3248 53.5037C33.3798 55.2626 34.0371 57.4559 35.7929 58.4026L48.9258 65.4836C50.6816 66.4303 52.871 65.7719 53.816 64.013L54.9567 61.8898C55.9017 60.1309 55.2444 57.9375 53.4886 56.9908L40.3557 49.9098C38.5999 48.9631 36.4105 49.6216 35.4655 51.3805Z" fill="#F9C30B"/>
<path d="M28.2564 67.7197L27.5126 70.0129C26.8965 71.9126 27.9343 73.953 29.8306 74.5703L44.0149 79.1873C45.9113 79.8046 47.948 78.7649 48.5642 76.8652L49.3079 74.572C49.9241 72.6723 48.8863 70.6318 46.99 70.0146L32.8057 65.3976C30.9093 64.7803 28.8725 65.82 28.2564 67.7197Z" fill="#F9C30B"/>
<path d="M23.7461 84.7354L23.4332 87.1225C23.174 89.1 24.5641 90.9136 26.5381 91.1733L41.3032 93.1156C43.2772 93.3753 45.0876 91.9827 45.3468 90.0052L45.6597 87.6181C45.9189 85.6406 44.5288 83.827 42.5548 83.5673L27.7897 81.625C25.8157 81.3653 24.0053 82.7579 23.7461 84.7354Z" fill="#F9C30B"/>
<path d="M41.4015 98.4877L26.5022 99.1576C24.5103 99.2472 22.968 100.937 23.0574 102.933L23.1653 105.34C23.2547 107.336 24.9419 108.881 26.9338 108.791L41.8331 108.121C43.825 108.032 45.3673 106.341 45.2779 104.346L45.1701 101.939C45.0806 99.9432 43.3934 98.3981 41.4015 98.4877Z" fill="#F9C30B"/>
<path d="M42.5057 113.003L27.9656 116.329C26.0217 116.773 24.8056 118.712 25.2493 120.66L25.785 123.011C26.2288 124.958 28.1644 126.176 30.1084 125.732L44.6485 122.406C46.5924 121.962 47.8085 120.023 47.3648 118.075L46.8291 115.724C46.3853 113.777 44.4497 112.559 42.5057 113.003Z" fill="#F9C30B"/>
<path d="M46.1583 127.111L32.4439 132.983C30.6104 133.768 29.7592 135.893 30.5428 137.73L31.4887 139.947C32.2722 141.784 34.3938 142.637 36.2273 141.852L49.9417 135.98C51.7752 135.195 52.6263 133.07 51.8428 131.233L50.8969 129.016C50.1133 127.179 47.9918 126.327 46.1583 127.111Z" fill="#F9C30B"/>
<path d="M194.091 128.999L193.145 131.216C192.361 133.053 193.212 135.178 195.046 135.963L208.76 141.835C210.594 142.62 212.715 141.767 213.499 139.93L214.445 137.713C215.228 135.876 214.377 133.751 212.544 132.966L198.829 127.094C196.996 126.31 194.874 127.162 194.091 128.999Z" fill="#F9C30B"/>
<path d="M198.188 115.739L197.653 118.09C197.209 120.037 198.425 121.976 200.369 122.421L214.909 125.746C216.853 126.191 218.789 124.972 219.232 123.025L219.768 120.674C220.212 118.727 218.996 116.788 217.052 116.343L202.512 113.018C200.568 112.573 198.632 113.792 198.188 115.739Z" fill="#F9C30B"/>
<path d="M199.819 101.932L199.711 104.339C199.622 106.335 201.164 108.025 203.156 108.115L218.055 108.785C220.047 108.874 221.734 107.329 221.824 105.334L221.932 102.926C222.021 100.931 220.479 99.2407 218.487 99.1512L203.588 98.4812C201.596 98.3916 199.908 99.9367 199.819 101.932Z" fill="#F9C30B"/>
<path d="M216.857 82.0093L202.077 84.0138C200.101 84.2818 198.716 86.1037 198.984 88.0831L199.307 90.4725C199.574 92.4519 201.393 93.8394 203.369 93.5714L218.148 91.5669C220.124 91.2989 221.509 89.477 221.242 87.4976L220.919 85.1082C220.651 83.1288 218.833 81.7413 216.857 82.0093Z" fill="#F9C30B"/>
<path d="M212.196 65.4006L198.011 70.0176C196.115 70.6349 195.077 72.6753 195.693 74.575L196.437 76.8682C197.053 78.7679 199.09 79.8076 200.986 79.1903L215.171 74.5733C217.067 73.956 218.105 71.9156 217.489 70.0159L216.745 67.7227C216.129 65.823 214.092 64.7833 212.196 65.4006Z" fill="#F9C30B"/>
<path d="M204.643 49.886L191.51 56.967C189.754 57.9137 189.097 60.107 190.042 61.866L191.183 63.9891C192.128 65.7481 194.317 66.4065 196.073 65.4598L209.206 58.3788C210.962 57.4321 211.619 55.2388 210.674 53.4799L209.533 51.3567C208.588 49.5978 206.399 48.9393 204.643 49.886Z" fill="#F9C30B"/>
<path d="M194.459 36.0123L182.798 45.3276C181.239 46.5729 180.983 48.8486 182.227 50.4103L183.727 52.2955C184.97 53.8572 187.242 54.1137 188.801 52.8683L200.461 43.553C202.02 42.3077 202.276 40.032 201.033 38.4703L199.533 36.5851C198.289 35.0234 196.018 34.7669 194.459 36.0123Z" fill="#F9C30B"/>
<path d="M181.951 24.1579L172.139 35.41C170.827 36.9143 170.981 39.1991 172.483 40.5133L174.294 42.0986C175.796 43.4128 178.077 43.2586 179.388 41.7543L189.2 30.5022C190.512 28.9979 190.358 26.7131 188.857 25.3989L187.045 23.8135C185.544 22.4994 183.263 22.6535 181.951 24.1579Z" fill="#F9C30B"/>
<path d="M167.551 14.7464L159.901 27.572C158.878 29.2867 159.436 31.5074 161.148 32.532L163.213 33.768C164.925 34.7926 167.141 34.2332 168.164 32.5185L175.814 19.6928C176.837 17.9781 176.278 15.7575 174.567 14.7329L172.502 13.4968C170.79 12.4722 168.574 13.0317 167.551 14.7464Z" fill="#F9C30B"/>
<path d="M151.679 8.04436L146.438 22.0327C145.738 23.9029 146.683 25.9879 148.55 26.6897L150.802 27.5364C152.669 28.2382 154.75 27.2911 155.451 25.4209L160.691 11.4325C161.391 9.56241 160.446 7.47742 158.579 6.7756L156.327 5.92894C154.46 5.22711 152.379 6.17422 151.679 8.04436Z" fill="#F9C30B"/>
<path d="M134.895 4.30274L132.231 19.0034C131.875 20.9688 133.176 22.8513 135.138 23.2081L137.506 23.6388C139.468 23.9956 141.347 22.6916 141.704 20.7262L144.368 6.02558C144.724 4.06022 143.422 2.17772 141.46 1.82091L139.092 1.3902C137.13 1.03338 135.251 2.33737 134.895 4.30274Z" fill="#F9C30B"/>
<path d="M34.2561 232.973C33.7093 231.982 32.7031 231.119 31.2374 230.385C29.7716 229.651 28.357 229.283 26.9935 229.283C25.8682 229.283 24.9559 229.582 24.2568 230.18C23.5577 230.778 23.2081 231.692 23.2081 232.921C23.1995 233.441 23.3024 233.957 23.5097 234.435C23.717 234.912 24.0241 235.34 24.4101 235.688C25.2567 236.463 26.2705 237.032 27.3725 237.35C28.5489 237.708 29.8357 238.16 31.233 238.708C32.5509 239.217 33.8401 239.797 35.095 240.447C36.2705 241.061 37.2594 242.018 38.0617 243.316C38.864 244.614 39.2646 246.185 39.2637 248.03C39.2637 250.046 38.8779 251.787 38.1065 253.255C37.3965 254.663 36.3072 255.843 34.9619 256.663C33.6382 257.465 32.2011 258.063 30.6993 258.435C29.1 258.821 27.4597 259.01 25.8146 258.999C22.6778 258.999 19.9778 258.555 17.7146 257.667C15.4514 256.779 14.3178 255.62 14.314 254.189C14.314 253.127 14.6033 252.273 15.1818 251.628C15.7604 250.982 16.7493 250.282 18.1485 249.526C19.0009 250.723 20.2796 251.723 21.9845 252.524C23.6893 253.326 25.3407 253.726 26.9385 253.724C28.302 253.724 29.411 253.4 30.2653 252.751C31.1197 252.101 31.5459 251.094 31.544 249.728C31.544 248.43 30.9895 247.388 29.8806 246.602C28.6524 245.76 27.2972 245.12 25.8667 244.707C24.2691 244.218 22.6984 243.645 21.1614 242.99C19.5925 242.323 18.2541 241.222 17.1461 239.686C16.0381 238.15 15.4841 236.17 15.4841 233.745C15.4841 232.006 15.8592 230.486 16.6095 229.185C17.3325 227.917 18.3814 226.866 19.647 226.142C20.9566 225.397 22.3707 224.853 23.8417 224.529C25.4628 224.176 27.118 224.004 28.7769 224.016C31.5734 224.016 33.9774 224.426 35.9889 225.246C38.0004 226.067 39.0062 227.211 39.0062 228.679C39.0062 229.568 38.5882 230.405 37.7521 231.189C36.9161 231.973 35.7507 232.568 34.2561 232.973Z" fill="white"/>
<path d="M45.3082 231.844C44.6948 231.855 44.0855 231.741 43.5179 231.507C42.9504 231.274 42.4368 230.926 42.0088 230.486C41.1053 229.582 40.6535 228.429 40.6535 227.027C40.6425 226.394 40.7642 225.767 41.0109 225.184C41.2576 224.602 41.6237 224.078 42.0855 223.646C42.5199 223.205 43.0381 222.855 43.6094 222.618C44.1807 222.38 44.7937 222.259 45.4123 222.263C46.0199 222.255 46.6224 222.375 47.1816 222.613C47.7408 222.851 48.2446 223.203 48.661 223.646C49.1027 224.089 49.4504 224.617 49.6833 225.198C49.9162 225.779 50.0295 226.401 50.0163 227.027C50.0307 227.668 49.9106 228.304 49.6639 228.896C49.4173 229.487 49.0495 230.02 48.5844 230.46C47.623 231.382 46.5309 231.844 45.3082 231.844ZM45.4094 233.995C46.7054 233.995 47.7117 234.217 48.4282 234.66C49.1446 235.104 49.5024 235.973 49.5014 237.269C49.5014 237.473 49.4416 238.976 49.3221 241.777C49.2025 244.577 49.1432 246.678 49.1441 248.078C49.1441 252.93 49.4334 256.226 50.012 257.967C48.6386 258.402 47.2073 258.627 45.7667 258.633C44.164 258.633 43.0474 258.351 42.4167 257.787C41.7861 257.223 41.4693 256.4 41.4664 255.318C41.4664 254.772 41.492 253.491 41.5431 251.475C41.5942 249.459 41.6197 247.853 41.6197 246.658C41.6197 241.775 41.5002 237.779 41.261 234.669C42.5953 234.217 43.9951 233.99 45.4036 233.997L45.4094 233.995Z" fill="white"/>
<path d="M51.8477 234.662C53.1355 234.237 54.481 234.012 55.8369 233.997C58.3248 233.997 59.7399 235.005 60.0823 237.02C62.3001 234.798 64.8232 233.687 67.6515 233.687C69.9658 233.687 71.8751 234.353 73.3794 235.685C74.8837 237.017 75.6335 238.913 75.6286 241.371C75.6286 241.441 75.6031 242.671 75.552 245.06C75.5009 247.45 75.4753 249.261 75.4753 250.491C75.4753 253.43 75.7646 255.923 76.3432 257.971C74.9011 258.412 73.4017 258.637 71.8939 258.638C69.1659 258.638 67.8024 257.596 67.8034 255.512C67.8034 254.283 67.8545 252.02 67.9567 248.724C68.0589 245.428 68.11 243.438 68.11 242.755C68.11 241.355 67.8284 240.305 67.2653 239.603C67.0111 239.27 66.6823 239.002 66.3054 238.82C65.9285 238.637 65.5141 238.547 65.0956 238.554C63.6637 238.554 62.0779 239.391 60.3383 241.064C60.4067 245.437 60.441 248.597 60.441 250.542C60.441 253.549 60.5263 256.179 60.697 258.432C59.5717 258.536 58.5659 258.587 57.6797 258.586C54.269 258.586 52.5641 257.765 52.5651 256.122C52.5651 255.986 52.6075 254.791 52.6924 252.536C52.7772 250.281 52.8201 247.942 52.8211 245.517C52.8201 239.955 52.4957 236.336 51.8477 234.662Z" fill="white"/>
<path d="M90.6643 254.131C91.7141 254.133 92.746 253.86 93.657 253.337C94.5392 252.871 95.2213 252.098 95.575 251.163C97.1082 251.709 98.114 252.241 98.5923 252.757C99.0662 253.253 99.3261 253.916 99.3155 254.602C99.3155 256.002 98.4958 257.086 96.8565 257.855C95.2172 258.624 93.0861 259.01 90.4632 259.014C86.6446 259.014 83.5758 257.947 81.2566 255.813C78.9375 253.679 77.7803 250.699 77.7852 246.873C77.7852 244.618 78.1709 242.62 78.9423 240.878C79.7138 239.136 80.7108 237.753 81.9336 236.728C83.1165 235.729 84.4673 234.949 85.9229 234.423C87.3142 233.917 88.7823 233.657 90.2622 233.653C92.3884 233.649 94.4905 234.104 96.4255 234.986C98.3849 235.875 99.3651 237.104 99.3661 238.674C99.3661 240.758 97.6955 242.005 94.3542 242.414C94.0475 241.255 93.5022 240.333 92.7182 239.648C92.0072 238.995 91.0793 238.63 90.1147 238.624C88.8534 238.624 87.7623 239.264 86.8413 240.545C85.9204 241.826 85.4561 243.707 85.4484 246.189C85.4484 251.485 87.187 254.132 90.6643 254.131Z" fill="white"/>
<path d="M113.013 233.638C115.536 233.638 117.718 234.27 119.56 235.534C121.402 236.799 122.322 238.677 122.321 241.17C122.321 246.226 118.707 248.753 111.48 248.752C110.83 248.752 109.654 248.718 107.951 248.65C107.951 250.597 108.437 252.015 109.409 252.902C110.381 253.79 111.582 254.234 113.013 254.234C115.536 254.234 117.496 253.413 118.895 251.771C119.643 252.121 120.3 252.641 120.813 253.289C121.307 253.921 121.555 254.562 121.555 255.211C121.555 256.235 120.949 257.056 119.739 257.674C118.638 258.254 117.443 258.635 116.21 258.801C115.116 258.935 114.014 259.003 112.912 259.006C109.16 259.006 106.091 257.973 103.705 255.906C101.32 253.84 100.127 250.687 100.128 246.447C100.128 243.646 100.785 241.246 102.097 239.248C103.409 237.25 105.012 235.816 106.905 234.945C108.822 234.068 110.907 233.622 113.013 233.638ZM112.604 238.509C111.377 238.509 110.304 239.064 109.383 240.174C108.462 241.284 107.985 242.915 107.951 245.068C108.904 245 109.579 244.94 109.976 244.888C110.373 244.836 110.936 244.725 111.664 244.555C112.397 244.385 112.927 244.154 113.255 243.863C113.687 243.453 114.027 242.955 114.251 242.403C114.476 241.851 114.58 241.257 114.557 240.661C114.556 240.114 114.356 239.586 113.994 239.176C113.829 238.966 113.617 238.796 113.376 238.681C113.135 238.565 112.871 238.506 112.604 238.509Z" fill="white"/>
<path d="M149.682 253.67C151.864 253.67 153.551 253.602 154.745 253.466C155.057 254.176 155.214 254.945 155.205 255.721C155.205 257.633 154.369 258.589 152.698 258.588C152.392 258.588 151.113 258.571 148.862 258.538C146.612 258.504 144.515 258.487 142.572 258.487C139.367 258.487 137.083 258.504 135.72 258.538C135.378 257.581 135.208 256.745 135.208 256.028C135.208 254.354 136.365 253.517 138.679 253.517H141.646C141.646 252.971 141.663 251.203 141.697 248.215C141.73 245.226 141.748 242.604 141.749 240.349C141.749 236.422 141.698 232.819 141.595 229.539C137.913 229.915 135.782 230.157 135.202 230.264C135.087 229.604 135.019 228.936 134.998 228.266C134.998 226.147 135.866 224.988 137.602 224.788C141.624 224.276 144.624 224.02 146.603 224.02C147.371 224.007 148.125 224.22 148.773 224.635C149.403 225.044 149.719 225.693 149.72 226.582C149.72 226.856 149.686 227.796 149.617 229.4C149.549 231.005 149.48 233.029 149.412 235.472C149.343 237.913 149.31 240.28 149.311 242.572V245.237C149.32 248.981 149.444 251.792 149.682 253.67Z" fill="white"/>
<path d="M170.599 224.006C172.85 224.006 174.778 224.416 176.385 225.236C177.915 225.989 179.2 227.161 180.092 228.617C180.958 230.043 181.588 231.6 181.959 233.228C183.042 238.292 182.551 243.566 180.552 248.342C179.242 251.38 177.14 254.008 174.467 255.951C171.721 257.98 168.539 258.994 164.92 258.994C163.42 258.994 162.337 258.781 161.673 258.354C161.009 257.927 160.676 257.116 160.676 255.921C160.693 255.091 160.796 254.266 160.983 253.457C161.767 253.696 162.858 253.815 164.256 253.815C167.461 253.815 169.907 252.816 171.596 250.819C173.284 248.821 174.264 246.319 174.536 243.313C172.592 244.815 170.529 245.567 168.347 245.567C165.279 245.533 162.884 244.525 161.162 242.543C159.441 240.562 158.58 238.189 158.579 235.423C158.579 232.383 159.636 229.718 161.75 227.43C163.863 225.141 166.813 224 170.599 224.006ZM170.19 229.077C169.064 229.077 168.178 229.582 167.531 230.59C166.884 231.599 166.56 232.82 166.559 234.253C166.539 235.769 166.872 237.269 167.531 238.634C168.178 239.949 169.235 240.606 170.702 240.606C171.827 240.606 173.123 240.213 174.588 239.428C174.598 238.11 174.53 236.792 174.384 235.482C174.254 234.392 174.041 233.313 173.745 232.255C173.456 231.229 173.012 230.443 172.414 229.898C171.806 229.347 171.009 229.053 170.19 229.077Z" fill="white"/>
<path d="M195.863 224.006C198.113 224.006 200.042 224.416 201.649 225.236C203.179 225.989 204.464 227.161 205.356 228.617C206.222 230.043 206.852 231.6 207.223 233.228C208.308 238.291 207.817 243.566 205.817 248.342C204.506 251.379 202.404 254.007 199.731 255.951C196.985 257.98 193.806 258.994 190.193 258.994C188.691 258.994 187.609 258.781 186.945 258.354C186.282 257.927 185.949 257.116 185.947 255.921C185.965 255.091 186.068 254.266 186.254 253.457C187.038 253.696 188.129 253.815 189.527 253.815C192.732 253.815 195.178 252.816 196.867 250.819C198.555 248.821 199.535 246.319 199.807 243.313C197.863 244.815 195.801 245.567 193.619 245.567C190.55 245.533 188.155 244.525 186.433 242.543C184.712 240.562 183.851 238.189 183.85 235.423C183.85 232.383 184.907 229.718 187.022 227.43C189.137 225.141 192.084 224 195.863 224.006ZM195.455 229.077C194.33 229.077 193.443 229.582 192.795 230.59C192.147 231.599 191.823 232.82 191.823 234.253C191.803 235.769 192.136 237.269 192.795 238.634C193.443 239.949 194.5 240.606 195.965 240.606C197.091 240.606 198.386 240.213 199.852 239.428C199.862 238.11 199.794 236.792 199.648 235.482C199.519 234.392 199.305 233.313 199.009 232.255C198.72 231.229 198.276 230.443 197.68 229.898C197.07 229.346 196.27 229.052 195.449 229.077H195.455Z" fill="white"/>
<path d="M225.117 239.838C227.844 240.931 229.702 242.186 230.692 243.605C231.681 245.025 232.175 246.741 232.174 248.755C232.174 251.521 230.93 253.921 228.441 255.954C225.952 257.988 222.542 259.002 218.212 258.997C217.395 258.997 216.586 258.963 215.783 258.896C214.83 258.804 213.882 258.659 212.945 258.461C211.854 258.239 210.967 257.852 210.285 257.302C209.604 256.751 209.263 256.068 209.263 255.251C209.263 254.466 209.569 253.723 210.183 253.023C210.794 252.325 211.593 251.818 212.484 251.562C212.893 252.279 213.643 252.868 214.735 253.33C215.852 253.797 217.053 254.033 218.264 254.023C219.75 254.05 221.201 253.571 222.38 252.665C223.556 251.76 224.144 250.521 224.145 248.949C224.145 247.104 223.54 245.619 222.33 244.492C221.12 243.366 219.508 242.802 217.496 242.801C216.883 242.801 216.414 242.785 216.09 242.751C215.711 242.702 215.34 242.598 214.991 242.443C214.795 242.365 214.617 242.247 214.468 242.098C214.318 241.948 214.201 241.77 214.123 241.574C213.935 241.064 213.848 240.523 213.867 239.98C213.859 239.412 213.91 238.846 214.02 238.289C217.02 238.289 219.279 237.709 220.797 236.55C222.314 235.391 223.073 234.024 223.072 232.451C223.072 231.323 222.748 230.469 222.101 229.889C221.454 229.308 220.619 229.019 219.595 229.019C218.402 229.019 217.245 229.395 216.123 230.147C215.002 230.898 214.251 231.872 213.873 233.067C212.611 232.897 211.64 232.478 210.958 231.812C210.276 231.145 209.935 230.421 209.934 229.638C209.934 228.238 210.957 226.949 213.003 225.771C215.049 224.592 217.605 224.003 220.669 224.003C223.943 224.003 226.499 224.78 228.335 226.334C230.172 227.889 231.093 229.742 231.098 231.893C231.1 235.551 229.106 238.2 225.117 239.838Z" fill="white"/>
<path d="M245 201.466H0V209.91H245V201.466Z" fill="white"/>
</g>
<defs>
<clipPath id="clip0_378_42">
<rect width="245" height="259" fill="white"/>
</clipPath>
</defs>
</svg>
