<svg id="Layer_1" data-name="Layer 1" xmlns="http://www.w3.org/2000/svg" viewBox="0 0 1693.81 1787.4"><defs><style>.cls-1{fill:#0764e6;}.cls-2{fill:#f9c30b;}</style></defs><path class="cls-1" d="M542.6,1081s38.85,56.33,46.62,77.69c44.68,9.72,246.69,99.07,345.76,167C935,1325.78,777.64,1141.25,542.6,1081Z" transform="translate(-140.76 -137.01)"/><path class="cls-1" d="M260,1160.68l155.88,139.85s336-37.88,519.12,51C887.87,1306.36,654.78,1144.65,260,1160.68Z" transform="translate(-140.76 -137.01)"/><path class="cls-1" d="M1426.42,1081s-38.85,56.33-46.62,77.69c-44.68,9.72-246.69,99.07-345.76,167C1034,1325.78,1191.38,1141.25,1426.42,1081Z" transform="translate(-140.76 -137.01)"/><path class="cls-1" d="M1709,1160.68l-155.88,139.85s-336-37.88-519.12,51C1081.15,1306.36,1314.24,1144.65,1709,1160.68Z" transform="translate(-140.76 -137.01)"/><path class="cls-1" d="M216.27,1347s491,4.37,775,122.37c128.2-74.3,440.93-112.66,767.75-122.37-315.16-54.88-607.5-44.59-771.39,35C803.86,1308.63,551.35,1287.26,216.27,1347Z" transform="translate(-140.76 -137.01)"/><path class="cls-1" d="M1214.39,603.52a219.31,219.31,0,0,0-155.56-64.43H830.11v552.14a112.17,112.17,0,0,0,112.17,112.18H999.1V979.06h59.73c121.5,0,220-98.48,220-220A219.34,219.34,0,0,0,1214.39,603.52ZM1019.5,849.88H998.12V667.3h21.38a91.29,91.29,0,1,1,0,182.58Z" transform="translate(-140.76 -137.01)"/><rect class="cls-2" x="813.63" width="66.56" height="153.03" rx="24.96"/><rect class="cls-2" x="845.24" y="146.83" width="66.56" height="153.03" rx="24.96" transform="translate(-166.52 23.45) rotate(-10.29)"/><rect class="cls-2" x="739.6" y="175.99" width="66.55" height="153.03" rx="24.96" transform="translate(-180.2 150.66) rotate(-20.57)"/><rect class="cls-2" x="640.87" y="223.54" width="66.55" height="153.03" rx="24.96" transform="translate(-199.23 251.23) rotate(-30.86)"/><rect class="cls-2" x="552.21" y="287.95" width="66.55" height="153.03" rx="24.96" transform="translate(-235.99 338.19) rotate(-41.14)"/><rect class="cls-2" x="476.47" y="367.16" width="66.56" height="153.03" rx="24.96" transform="translate(-295.71 428.58) rotate(-51.43)"/><rect class="cls-2" x="416.1" y="458.62" width="66.56" height="153.03" rx="24.96" transform="translate(-375.57 540.26) rotate(-61.71)"/><rect class="cls-2" x="373.03" y="559.39" width="66.56" height="153.03" rx="24.96" transform="translate(-464.79 688.82) rotate(-72)"/><rect class="cls-2" x="348.64" y="666.23" width="66.56" height="153.03" rx="24.96" transform="matrix(0.13, -0.99, 0.99, 0.13, -546.13, 884.5)"/><rect class="cls-2" x="300.49" y="818.95" width="153.03" height="66.55" rx="24.96" transform="translate(-178.62 -119.23) rotate(-2.57)"/><rect class="cls-2" x="315.2" y="927.54" width="153.03" height="66.56" rx="24.96" transform="translate(-344.73 -25.76) rotate(-12.86)"/><rect class="cls-2" x="349.07" y="1031.77" width="153.03" height="66.56" rx="24.96" transform="translate(-525.1 115.96) rotate(-23.14)"/><rect class="cls-2" x="1516.47" y="988.53" width="66.56" height="153.03" rx="24.96" transform="translate(-179.44 1934.49) rotate(-66.86)"/><rect class="cls-2" x="1550.34" y="884.31" width="66.56" height="153.03" rx="24.96" transform="translate(153.73 2153.92) rotate(-77.14)"/><rect class="cls-2" x="1565.05" y="775.71" width="66.55" height="153.03" rx="24.96" transform="translate(534.48 2273.69) rotate(-87.43)"/><rect class="cls-2" x="1516.9" y="709.47" width="153.03" height="66.56" rx="24.96" transform="translate(-226.04 83.59) rotate(-7.71)"/><rect class="cls-2" x="1492.51" y="602.63" width="153.03" height="66.56" rx="24.96" transform="translate(-260.47 378.99) rotate(-18)"/><rect class="cls-2" x="1449.44" y="501.86" width="153.03" height="66.56" rx="24.96" transform="translate(-212.14 649.99) rotate(-28.29)"/><rect class="cls-2" x="1389.07" y="410.4" width="153.03" height="66.56" rx="24.96" transform="translate(-97.65 873.55) rotate(-38.57)"/><rect class="cls-2" x="1313.33" y="331.19" width="153.03" height="66.55" rx="24.96" transform="translate(60.2 1034.35) rotate(-48.86)"/><rect class="cls-2" x="1224.68" y="266.77" width="153.03" height="66.55" rx="24.96" transform="translate(235.48 1126.16) rotate(-59.14)"/><rect class="cls-2" x="1125.94" y="219.22" width="153.03" height="66.55" rx="24.96" transform="translate(402.79 1152.55) rotate(-69.43)"/><rect class="cls-2" x="1020.3" y="190.07" width="153.03" height="66.56" rx="24.96" transform="translate(540.45 1125.64) rotate(-79.71)"/><path class="cls-1" d="M377.59,1744.79q-5.67-10.26-20.87-17.86t-29.34-7.6q-11.67,0-18.92,6.19t-7.25,18.91a25.15,25.15,0,0,0,8.31,19.1A51.51,51.51,0,0,0,330,1775q12.2,3.7,26.69,9.37a269.36,269.36,0,0,1,26.7,12q12.19,6.36,20.51,19.8t8.31,32.53q0,20.87-8,36.06a58.29,58.29,0,0,1-21.74,23.52A106.29,106.29,0,0,1,353,1920.51a140,140,0,0,1-33.77,3.89q-32.53,0-56-9.19t-23.51-24q0-11,6-17.68t20.51-14.5q8.84,12.39,26.52,20.69T327,1888q14.14,0,23-6.72t8.84-20.86q0-13.44-11.5-21.57a96.23,96.23,0,0,0-27.75-13.08,326.38,326.38,0,0,1-32.53-11.85q-16.27-6.9-27.76-22.8t-11.49-41q0-18,7.78-31.47a56.42,56.42,0,0,1,21-21,103.85,103.85,0,0,1,29-11.13,155.33,155.33,0,0,1,34.12-3.54q29,0,49.86,8.49t20.86,23.69q0,9.2-8.67,17.32T377.59,1744.79Z" transform="translate(-140.76 -137.01)"/><path class="cls-1" d="M454,1737a31,31,0,0,1-22.81-9.37q-9.37-9.36-9.37-23.87a31.16,31.16,0,0,1,9.9-23.33,32.08,32.08,0,0,1,23-9.55,30.36,30.36,0,0,1,22.46,9.55,32.06,32.06,0,0,1,9.37,23.33,31.61,31.61,0,0,1-9.9,23.69Q466.68,1737,454,1737Zm.7,14.85q13.44,0,20.87,4.59t7.42,18q0,2.12-1.24,31.11t-1.23,43.49q0,50.22,6,68.24a98.73,98.73,0,0,1-29.35,4.6q-16.62,0-23.16-5.84T427.44,1899q0-5.65.53-26.52t.53-33.24q0-50.55-2.48-82.74A88,88,0,0,1,454.66,1751.86Z" transform="translate(-140.76 -137.01)"/><path class="cls-1" d="M499.21,1756.45a91.38,91.38,0,0,1,27.58-4.59q25.8,0,29.35,20.86,23-23,52.33-23,24,0,39.6,13.79t15.55,39.24q0,.72-.53,25.46t-.53,37.48q0,30.42,6,51.62a105.55,105.55,0,0,1-30.76,4.6q-28.29,0-28.28-21.57,0-12.73,1.06-46.85t1.06-41.19q0-14.49-5.84-21.75a18.45,18.45,0,0,0-15-7.24q-14.85,0-32.89,17.32.71,45.27.71,65.41,0,31.13,1.77,54.45-11.67,1.07-20.86,1.06-35.37,0-35.36-17,0-1.41.88-24.75t.89-48.44Q505.93,1773.78,499.21,1756.45Z" transform="translate(-140.76 -137.01)"/><path class="cls-1" d="M767.57,1890.81a41.44,41.44,0,0,0,20.69-5.48,28.31,28.31,0,0,0,13.26-15q15.9,5.65,20.86,11a18,18,0,0,1,5,12.73q0,14.49-17,22.45t-44.2,8q-39.6,0-63.65-22.09t-24-61.7q0-23.34,8-41.37t20.68-28.64a90.31,90.31,0,0,1,27.58-15.91,88.68,88.68,0,0,1,30-5.31,102.29,102.29,0,0,1,42.61,9.2q20.32,9.2,20.33,25.45,0,21.57-34.65,25.81-3.18-12-11.31-19.09a26.89,26.89,0,0,0-18-7.07q-13.08,0-22.63,13.26T731.51,1836Q731.51,1890.82,767.57,1890.81Z" transform="translate(-140.76 -137.01)"/><path class="cls-1" d="M922.08,1749.38q26.16,0,45.26,13.09t19.09,38.89q0,52.34-74.95,52.33-6.74,0-24.4-.71,0,20.16,10.08,29.35t24.92,9.19q26.16,0,40.66-17A36.69,36.69,0,0,1,976,1885q5.13,6.54,5.13,13.26,0,10.6-12.55,17a73.51,73.51,0,0,1-24.4,7.78,193.1,193.1,0,0,1-22.8,1.41q-38.91,0-63.65-21.39T833,1837.78q0-29,13.61-49.68t33.24-29.7A100,100,0,0,1,922.08,1749.38ZM919.25,1783q-12.72,0-22.27,11.49t-9.9,33.77q9.88-.7,14-1.24t11.67-2.3q7.6-1.76,11-4.77a28.9,28.9,0,0,0,9-22.1,15.52,15.52,0,0,0-3.89-10.25A12.08,12.08,0,0,0,919.25,1783Z" transform="translate(-140.76 -137.01)"/><path class="cls-1" d="M1175.59,1887.63q22.62,0,35-1.41a37.52,37.52,0,0,1,3.18,15.56q0,19.8-17.33,19.79-3.18,0-26.52-.35t-43.49-.35q-33.23,0-47.37.35-3.54-9.9-3.54-17.32,0-17.33,24-17.33h20.51q0-5.65.35-36.59t.36-54.28q0-40.65-1.06-74.6-38.19,3.89-44.2,5a98.4,98.4,0,0,1-1.41-13.79q0-21.93,18-24,41.71-5.3,62.23-5.3a27,27,0,0,1,15,4.24q6.54,4.24,6.55,13.44,0,2.84-.71,19.45t-1.42,41.9q-.71,25.27-.7,49v18.39Q1173.12,1868.19,1175.59,1887.63Z" transform="translate(-140.76 -137.01)"/><path class="cls-1" d="M1320.2,1682.91q23.34,0,40,8.49a62.34,62.34,0,0,1,25.63,23.33,107.21,107.21,0,0,1,12.91,31.82,175,175,0,0,1-9.73,104.31,127.26,127.26,0,0,1-42.07,52.51q-28.47,21-66,21-15.56,0-22.45-4.42t-6.89-16.79a82.54,82.54,0,0,1,2.12-17q8.13,2.47,22.63,2.47,33.23,0,50.74-20.68t20.33-51.8q-20.16,15.55-42.79,15.56-31.82-.36-49.67-20.87t-17.86-49.14q0-31.47,21.92-55.16T1320.2,1682.91Zm-2.83,35q-11.67,0-18.38,10.44t-6.72,25.28a67.36,67.36,0,0,0,6.72,30.23q6.71,13.61,21.92,13.61,11.67,0,26.87-8.13a230.11,230.11,0,0,0-1.41-27.23,147.28,147.28,0,0,0-4.42-22.27q-3-10.62-9.2-16.27A21.93,21.93,0,0,0,1317.37,1717.91Z" transform="translate(-140.76 -137.01)"/><path class="cls-1" d="M1494.86,1682.91q23.34,0,40,8.49a62.28,62.28,0,0,1,25.63,23.33,107.21,107.21,0,0,1,12.91,31.82,174.84,174.84,0,0,1-9.72,104.31,127.37,127.37,0,0,1-42.08,52.51q-28.47,21-65.94,21-15.57,0-22.45-4.42t-6.9-16.79a83.24,83.24,0,0,1,2.12-17q8.13,2.47,22.63,2.47,33.23,0,50.74-20.68t20.33-51.8q-20.16,15.55-42.78,15.56-31.83-.36-49.68-20.87t-17.86-49.14q0-31.47,21.93-55.16T1494.86,1682.91Zm-2.82,35q-11.67,0-18.39,10.44t-6.72,25.28a67.36,67.36,0,0,0,6.72,30.23q6.72,13.61,21.92,13.61,11.67,0,26.87-8.13a230.11,230.11,0,0,0-1.41-27.23,146.06,146.06,0,0,0-4.42-22.27q-3-10.62-9.19-16.27A22,22,0,0,0,1492,1717.91Z" transform="translate(-140.76 -137.01)"/><path class="cls-1" d="M1697.11,1792.17q28.28,11.31,38.54,26t10.25,35.54q0,28.63-25.81,49.68t-70.72,21q-8.47,0-16.79-.7a177.76,177.76,0,0,1-19.62-3q-11.32-2.3-18.39-8t-7.07-14.15q0-8.13,6.36-15.38a33.4,33.4,0,0,1,15.91-10.08q4.24,7.42,15.56,12.2a62,62,0,0,0,24.4,4.78,45.37,45.37,0,0,0,28.46-9.37q12.19-9.37,12.2-25.64,0-19.1-12.55-30.76t-33.42-11.67c-4.24,0-7.48-.11-9.72-.35a27.4,27.4,0,0,1-7.6-2.12,10.76,10.76,0,0,1-6-6,28.77,28.77,0,0,1-1.77-11,56.11,56.11,0,0,1,1.06-11.67q31.11,0,46.85-12t15.73-28.29q0-11.67-6.71-17.68t-17.33-6q-12.37,0-24,7.78t-15.56,20.15q-13.08-1.76-20.15-8.66t-7.08-15q0-14.49,21.22-26.69t53-12.2q33.95,0,53,16.09t19.1,38.36Q1738.48,1775.21,1697.11,1792.17Z" transform="translate(-140.76 -137.01)"/><rect class="cls-1" y="1390.35" width="1693.81" height="58.27"/></svg>