<svg width="375" height="136" viewBox="0 0 375 136" fill="none" xmlns="http://www.w3.org/2000/svg">
<g clip-path="url(#clip0_456_6)">
<path d="M30.501 71.7812C30.501 71.7812 33.4499 76.0646 34.0396 77.6888C37.431 78.4279 52.7645 85.2221 60.2843 90.3875C60.2858 90.3944 48.3415 76.3627 30.501 71.7812Z" fill="#005EE1"/>
<path d="M9.05078 77.8401L20.8828 88.4743C20.8828 88.4743 46.3866 85.5939 60.2862 92.3524C56.7088 88.9177 39.0163 76.6212 9.05078 77.8401Z" fill="#005EE1"/>
<path d="M97.5871 71.7812C97.5871 71.7812 94.6382 76.0646 94.0484 77.6888C90.657 78.4279 75.3236 85.2221 67.8037 90.3875C67.8007 90.3944 79.7465 76.3627 97.5871 71.7812Z" fill="#005EE1"/>
<path d="M119.036 77.8401L107.204 88.4743C107.204 88.4743 81.7004 85.5939 67.8008 92.3524C71.3797 88.9177 89.0722 76.6212 119.036 77.8401Z" fill="#005EE1"/>
<path d="M5.73145 92.0079C5.73145 92.0079 43.0005 92.3402 64.5573 101.313C74.2883 95.6632 98.0258 92.7463 122.833 92.0079C98.9109 87.8349 76.721 88.6173 64.281 94.6693C50.3321 89.0903 31.1655 87.4653 5.73145 92.0079Z" fill="#005EE1"/>
<path d="M81.4927 35.4735C79.9438 33.9179 78.1033 32.6842 76.0769 31.8435C74.0506 31.0027 71.8783 30.5713 69.6851 30.5742H52.3242V72.5591C52.3241 73.6792 52.5443 74.7885 52.9721 75.8234C53.3999 76.8583 54.0271 77.7987 54.8177 78.5908C55.6083 79.3829 56.547 80.0112 57.58 80.4399C58.613 80.8686 59.7203 81.0893 60.8384 81.0893H65.1513V64.0296H69.6851C78.9074 64.0296 86.384 56.5412 86.384 47.3008C86.3865 45.1038 85.9557 42.928 85.1163 40.8983C84.2769 38.8686 83.0454 37.025 81.4927 35.4735ZM66.6997 54.2068H65.0769V40.3233H66.6997C68.5375 40.3233 70.3 41.0547 71.5995 42.3565C72.899 43.6583 73.6291 45.424 73.6291 47.2651C73.6291 49.1061 72.899 50.8718 71.5995 52.1736C70.3 53.4754 68.5375 54.2068 66.6997 54.2068Z" fill="#005EE1"/>
<path d="M64.9154 0H63.6524C62.606 0 61.7578 0.849747 61.7578 1.89796V9.73847C61.7578 10.7867 62.606 11.6364 63.6524 11.6364H64.9154C65.9618 11.6364 66.81 10.7867 66.81 9.73847V1.89796C66.81 0.849747 65.9618 0 64.9154 0Z" fill="#F9C30B"/>
<path d="M55.5834 0.72254L54.3407 0.948563C53.3112 1.13581 52.6281 2.12368 52.815 3.15503L54.213 10.8694C54.4 11.9008 55.3861 12.5851 56.4156 12.3978L57.6583 12.1718C58.6878 11.9846 59.3709 10.9967 59.184 9.96534L57.7859 2.25094C57.599 1.21959 56.6129 0.535297 55.5834 0.72254Z" fill="#F9C30B"/>
<path d="M46.5308 3.11443L45.349 3.55873C44.3693 3.92703 43.8732 5.02116 44.2409 6.00254L46.9907 13.3432C47.3583 14.3246 48.4505 14.8216 49.4302 14.4533L50.612 14.009C51.5916 13.6407 52.0877 12.5465 51.7201 11.5652L48.9702 4.22453C48.6026 3.24315 47.5104 2.74614 46.5308 3.11443Z" fill="#F9C30B"/>
<path d="M38.0488 7.0763L36.9652 7.72494C36.067 8.26261 35.774 9.42793 36.3107 10.3277L40.3252 17.0582C40.8619 17.958 42.0252 18.2516 42.9234 17.7139L44.0069 17.0653C44.9052 16.5276 45.1982 15.3623 44.6615 14.4625L40.6469 7.73201C40.1102 6.8322 38.947 6.53863 38.0488 7.0763Z" fill="#F9C30B"/>
<path d="M30.4106 12.4998L29.46 13.3318C28.672 14.0214 28.5913 15.2204 29.2796 16.0098L34.4287 21.9145C35.1171 22.7039 36.314 22.7848 37.102 22.0952L38.0526 21.2633C38.8406 20.5736 38.9214 19.3746 38.233 18.5852L33.0839 12.6805C32.3955 11.8911 31.1987 11.8102 30.4106 12.4998Z" fill="#F9C30B"/>
<path d="M23.8613 19.1957L23.0738 20.185C22.4214 21.0046 22.5558 22.1987 23.3738 22.8523L29.493 27.7406C30.311 28.3941 31.5031 28.2595 32.1554 27.44L32.9429 26.4507C33.5953 25.6312 33.4609 24.437 32.6429 23.7835L26.5237 18.8952C25.7057 18.2416 24.5136 18.3762 23.8613 19.1957Z" fill="#F9C30B"/>
<path d="M18.6108 26.9626L18.0122 28.0768C17.5163 28.9998 17.8612 30.1508 18.7825 30.6476L25.6742 34.3634C26.5956 34.8602 27.7445 34.5147 28.2404 33.5917L28.839 32.4775C29.3349 31.5545 28.99 30.4035 28.0687 29.9067L21.177 26.1908C20.2556 25.694 19.1067 26.0396 18.6108 26.9626Z" fill="#F9C30B"/>
<path d="M14.8283 35.537L14.438 36.7403C14.1147 37.7373 14.6593 38.808 15.6544 39.1319L23.0978 41.5548C24.093 41.8787 25.1618 41.3331 25.4851 40.3362L25.8754 39.1328C26.1988 38.1359 25.6542 37.0652 24.659 36.7412L17.2156 34.3184C16.2205 33.9945 15.1516 34.54 14.8283 35.537Z" fill="#F9C30B"/>
<path d="M12.4613 44.4663L12.2971 45.7189C12.1611 46.7567 12.8905 47.7084 13.9264 47.8446L21.6746 48.8639C22.7105 49.0002 23.6605 48.2694 23.7966 47.2317L23.9608 45.979C24.0968 44.9413 23.3673 43.9895 22.3314 43.8533L14.5832 42.834C13.5473 42.6977 12.5973 43.4285 12.4613 44.4663Z" fill="#F9C30B"/>
<path d="M21.7259 51.683L13.9073 52.0345C12.862 52.0815 12.0527 52.9685 12.0996 54.0157L12.1562 55.279C12.2031 56.3261 13.0885 57.1369 14.1338 57.0899L21.9524 56.7383C22.9977 56.6913 23.8071 55.8043 23.7602 54.7572L23.7036 53.4939C23.6566 52.4467 22.7712 51.636 21.7259 51.683Z" fill="#F9C30B"/>
<path d="M22.3054 59.3004L14.6752 61.0455C13.6551 61.2788 13.0169 62.2963 13.2498 63.3183L13.5309 64.5518C13.7638 65.5738 14.7795 66.2131 15.7996 65.9798L23.4298 64.2347C24.4499 64.0014 25.0881 62.9838 24.8552 61.9619L24.5741 60.7283C24.3412 59.7064 23.3255 59.0671 22.3054 59.3004Z" fill="#F9C30B"/>
<path d="M24.2222 66.7036L17.0254 69.7848C16.0632 70.1967 15.6165 71.312 16.0277 72.2759L16.5241 73.4394C16.9353 74.4033 18.0486 74.8507 19.0108 74.4388L26.2076 71.3577C27.1698 70.9457 27.6164 69.8304 27.2052 68.8665L26.7089 67.703C26.2977 66.7391 25.1844 66.2917 24.2222 66.7036Z" fill="#F9C30B"/>
<path d="M101.852 67.6942L101.356 68.8578C100.945 69.8216 101.391 70.937 102.353 71.3489L109.55 74.43C110.512 74.842 111.626 74.3945 112.037 73.4306L112.533 72.2671C112.945 71.3032 112.498 70.1879 111.536 69.776L104.339 66.6948C103.377 66.2829 102.263 66.7304 101.852 67.6942Z" fill="#F9C30B"/>
<path d="M104.003 60.7357L103.721 61.9692C103.489 62.9911 104.127 64.0087 105.147 64.242L112.777 65.9871C113.797 66.2204 114.813 65.5811 115.046 64.5591L115.327 63.3256C115.56 62.3036 114.922 61.2861 113.902 61.0528L106.271 59.3077C105.251 59.0744 104.235 59.7137 104.003 60.7357Z" fill="#F9C30B"/>
<path d="M104.858 53.4905L104.802 54.7537C104.755 55.8009 105.564 56.6879 106.609 56.7349L114.428 57.0865C115.473 57.1335 116.359 56.3227 116.406 55.2755L116.462 54.0122C116.509 52.9651 115.7 52.0781 114.655 52.0311L106.836 51.6795C105.791 51.6325 104.905 52.4433 104.858 53.4905Z" fill="#F9C30B"/>
<path d="M113.799 43.0355L106.043 44.0874C105.007 44.228 104.28 45.1841 104.42 46.2228L104.59 47.4767C104.73 48.5155 105.684 49.2435 106.721 49.1029L114.477 48.051C115.514 47.9104 116.241 46.9543 116.1 45.9156L115.931 44.6617C115.79 43.623 114.836 42.8949 113.799 43.0355Z" fill="#F9C30B"/>
<path d="M111.353 34.3199L103.909 36.7427C102.914 37.0666 102.37 38.1374 102.693 39.1343L103.083 40.3377C103.407 41.3346 104.475 41.8802 105.47 41.5562L112.914 39.1334C113.909 38.8095 114.454 37.7387 114.13 36.7418L113.74 35.5384C113.417 34.5415 112.348 33.996 111.353 34.3199Z" fill="#F9C30B"/>
<path d="M107.389 26.1784L100.497 29.8943C99.576 30.3911 99.2311 31.5421 99.727 32.4651L100.326 33.5793C100.822 34.5023 101.97 34.8478 102.892 34.351L109.784 30.6351C110.705 30.1384 111.05 28.9874 110.554 28.0644L109.955 26.9502C109.459 26.0272 108.31 25.6816 107.389 26.1784Z" fill="#F9C30B"/>
<path d="M102.046 18.8982L95.9266 23.7865C95.1085 24.4401 94.9742 25.6342 95.6265 26.4538L96.414 27.443C97.0664 28.2626 98.2584 28.3972 99.0765 27.7436L105.196 22.8553C106.014 22.2018 106.148 21.0076 105.496 20.1881L104.708 19.1988C104.056 18.3792 102.864 18.2447 102.046 18.8982Z" fill="#F9C30B"/>
<path d="M95.4814 12.6771L90.3324 18.5819C89.644 19.3713 89.7247 20.5703 90.5127 21.2599L91.4634 22.0919C92.2514 22.7815 93.4482 22.7006 94.1366 21.9112L99.2857 16.0064C99.9741 15.217 99.8933 14.018 99.1053 13.3284L98.1547 12.4965C97.3667 11.8068 96.1698 11.8877 95.4814 12.6771Z" fill="#F9C30B"/>
<path d="M87.9248 7.7383L83.9103 14.4688C83.3736 15.3686 83.6666 16.5339 84.5648 17.0716L85.6484 17.7202C86.5466 18.2579 87.7098 17.9643 88.2466 17.0645L92.2611 10.334C92.7978 9.43422 92.5048 8.2689 91.6065 7.73123L90.523 7.08259C89.6248 6.54492 88.4615 6.83848 87.9248 7.7383Z" fill="#F9C30B"/>
<path d="M79.5962 4.22128L76.8463 11.5619C76.4787 12.5433 76.9748 13.6374 77.9544 14.0057L79.1363 14.45C80.1159 14.8183 81.2081 14.3213 81.5757 13.3399L84.3256 5.99929C84.6932 5.0179 84.1971 3.92377 83.2174 3.55548L82.0356 3.11118C81.056 2.74289 79.9638 3.2399 79.5962 4.22128Z" fill="#F9C30B"/>
<path d="M70.7882 2.25776L69.3902 9.97216C69.2033 11.0035 69.8863 11.9914 70.9159 12.1786L72.1586 12.4047C73.1881 12.5919 74.1742 11.9076 74.3611 10.8763L75.7592 3.16185C75.9461 2.13049 75.263 1.14263 74.2335 0.955384L72.9908 0.729361C71.9613 0.542117 70.9751 1.2264 70.7882 2.25776Z" fill="#F9C30B"/>
<path d="M17.9767 122.256C17.6897 121.736 17.1617 121.283 16.3925 120.898C15.6234 120.513 14.881 120.32 14.1655 120.32C13.575 120.32 13.0963 120.477 12.7294 120.791C12.3625 121.104 12.1791 121.584 12.1791 122.229C12.1746 122.502 12.2285 122.773 12.3373 123.023C12.4461 123.274 12.6072 123.498 12.8098 123.681C13.2541 124.088 13.7861 124.386 14.3644 124.553C14.9817 124.741 15.657 124.978 16.3903 125.266C17.0818 125.533 17.7584 125.837 18.4169 126.178C19.0337 126.5 19.5527 127.002 19.9737 127.684C20.3947 128.365 20.605 129.189 20.6045 130.157C20.6045 131.215 20.402 132.129 19.9972 132.899C19.6247 133.638 19.053 134.258 18.3471 134.688C17.6524 135.109 16.8983 135.422 16.1102 135.618C15.2709 135.82 14.4101 135.92 13.5469 135.913C11.9008 135.913 10.4839 135.681 9.29623 135.215C8.10858 134.749 7.51374 134.14 7.51172 133.39C7.51172 132.832 7.66353 132.384 7.96714 132.045C8.27076 131.707 8.7897 131.339 9.52394 130.943C9.97127 131.571 10.6423 132.095 11.5369 132.516C12.4316 132.937 13.2982 133.147 14.1367 133.146C14.8522 133.146 15.4341 132.975 15.8825 132.635C16.3308 132.294 16.5545 131.765 16.5534 131.048C16.5534 130.367 16.2625 129.82 15.6805 129.408C15.036 128.966 14.3249 128.63 13.5742 128.414C12.7358 128.157 11.9116 127.856 11.105 127.513C10.2817 127.163 9.57935 126.585 8.99792 125.779C8.4165 124.973 8.12578 123.934 8.12578 122.661C8.12578 121.749 8.32263 120.951 8.71632 120.268C9.09577 119.603 9.64616 119.051 10.3103 118.671C10.9976 118.28 11.7396 117.995 12.5115 117.825C13.3623 117.64 14.2308 117.55 15.1014 117.556C16.5689 117.556 17.8304 117.771 18.886 118.201C19.9416 118.632 20.4693 119.232 20.4693 120.003C20.4693 120.469 20.25 120.908 19.8113 121.32C19.3725 121.731 18.761 122.043 17.9767 122.256Z" fill="#005EE1"/>
<path d="M23.776 121.664C23.4541 121.67 23.1343 121.61 22.8365 121.487C22.5387 121.365 22.2692 121.182 22.0446 120.951C21.5704 120.477 21.3334 119.872 21.3334 119.136C21.3276 118.804 21.3915 118.475 21.5209 118.169C21.6504 117.863 21.8425 117.588 22.0848 117.362C22.3128 117.13 22.5847 116.947 22.8845 116.822C23.1843 116.698 23.506 116.634 23.8306 116.636C24.1495 116.632 24.4656 116.695 24.7591 116.82C25.0525 116.945 25.3169 117.129 25.5354 117.362C25.7672 117.594 25.9497 117.871 26.0719 118.176C26.1941 118.481 26.2535 118.808 26.2467 119.136C26.2542 119.472 26.1912 119.806 26.0617 120.117C25.9323 120.427 25.7393 120.706 25.4952 120.937C24.9907 121.421 24.4176 121.664 23.776 121.664ZM23.8291 122.793C24.5092 122.793 25.0372 122.909 25.4132 123.142C25.7892 123.374 25.9769 123.831 25.9764 124.51C25.9764 124.618 25.9451 125.407 25.8823 126.876C25.8196 128.346 25.7884 129.448 25.789 130.183C25.789 132.729 25.9408 134.459 26.2444 135.372C25.5236 135.601 24.7725 135.719 24.0166 135.722C23.1756 135.722 22.5896 135.574 22.2586 135.278C21.9277 134.982 21.7615 134.55 21.76 133.982C21.76 133.696 21.7734 133.023 21.8002 131.965C21.827 130.908 21.8404 130.065 21.8404 129.438C21.8404 126.875 21.7777 124.778 21.6522 123.146C22.3523 122.909 23.0869 122.79 23.8261 122.794L23.8291 122.793Z" fill="#005EE1"/>
<path d="M27.208 123.143C27.8838 122.919 28.5899 122.802 29.3014 122.794C30.607 122.794 31.3496 123.322 31.5292 124.38C32.6931 123.214 34.0171 122.631 35.5013 122.631C36.7158 122.631 37.7177 122.98 38.5071 123.679C39.2965 124.379 39.69 125.373 39.6874 126.663C39.6874 126.7 39.674 127.345 39.6472 128.599C39.6204 129.853 39.607 130.803 39.607 131.449C39.607 132.991 39.7588 134.3 40.0624 135.374C39.3056 135.606 38.5188 135.724 37.7276 135.724C36.296 135.724 35.5805 135.177 35.581 134.084C35.581 133.439 35.6078 132.251 35.6615 130.522C35.7151 128.792 35.7419 127.748 35.7419 127.389C35.7419 126.655 35.5942 126.104 35.2987 125.736C35.1653 125.561 34.9927 125.42 34.7949 125.324C34.5971 125.229 34.3797 125.181 34.1601 125.185C33.4086 125.185 32.5765 125.624 31.6636 126.502C31.6995 128.797 31.7175 130.455 31.7175 131.476C31.7175 133.054 31.7623 134.434 31.8518 135.616C31.2613 135.67 30.7335 135.697 30.2685 135.697C28.4786 135.697 27.584 135.266 27.5845 134.404C27.5845 134.333 27.6068 133.705 27.6513 132.522C27.6958 131.339 27.7183 130.111 27.7188 128.839C27.7183 125.92 27.5481 124.021 27.208 123.143Z" fill="#005EE1"/>
<path d="M47.5779 133.359C48.1287 133.361 48.6703 133.217 49.1483 132.943C49.6113 132.698 49.9692 132.292 50.1548 131.802C50.9594 132.088 51.4872 132.367 51.7382 132.638C51.9869 132.899 52.1233 133.246 52.1177 133.606C52.1177 134.341 51.6876 134.91 50.8273 135.314C49.9671 135.717 48.8488 135.92 47.4724 135.922C45.4685 135.922 43.858 135.362 42.641 134.242C41.424 133.122 40.8168 131.558 40.8193 129.55C40.8193 128.367 41.0218 127.319 41.4266 126.405C41.8314 125.491 42.3546 124.765 42.9963 124.227C43.6171 123.703 44.3259 123.293 45.0897 123.017C45.8198 122.752 46.5902 122.615 47.3668 122.613C48.4826 122.611 49.5857 122.85 50.6011 123.313C51.6294 123.779 52.1438 124.424 52.1443 125.248C52.1443 126.342 51.2676 126.996 49.5142 127.211C49.3533 126.602 49.0671 126.118 48.6557 125.759C48.2826 125.416 47.7956 125.225 47.2894 125.221C46.6275 125.221 46.055 125.558 45.5717 126.23C45.0885 126.902 44.8448 127.889 44.8408 129.192C44.8408 131.971 45.7531 133.36 47.5779 133.359Z" fill="#005EE1"/>
<path d="M59.3055 122.605C60.6293 122.605 61.7744 122.937 62.7409 123.6C63.7075 124.264 64.1905 125.25 64.1899 126.558C64.1899 129.211 62.2936 130.537 58.5009 130.537C58.1599 130.537 57.5425 130.519 56.6489 130.483C56.6489 131.505 56.9039 132.249 57.414 132.714C57.924 133.18 58.5546 133.413 59.3055 133.413C60.6293 133.413 61.658 132.982 62.3918 132.121C62.7846 132.304 63.1292 132.577 63.3983 132.918C63.6579 133.249 63.7877 133.585 63.7877 133.926C63.7877 134.463 63.4701 134.894 62.8351 135.218C62.257 135.523 61.6301 135.723 60.983 135.81C60.4087 135.88 59.8309 135.916 59.2524 135.917C57.2834 135.917 55.673 135.375 54.4211 134.291C53.1691 133.206 52.5434 131.552 52.5439 129.327C52.5439 127.857 52.8883 126.598 53.577 125.549C54.2657 124.501 55.1067 123.748 56.1001 123.291C57.1059 122.831 58.1999 122.597 59.3055 122.605ZM59.0907 125.161C58.447 125.161 57.8836 125.453 57.4003 126.035C56.917 126.618 56.6666 127.474 56.6489 128.603C57.1488 128.567 57.503 128.536 57.7115 128.509C57.92 128.481 58.2153 128.423 58.5973 128.334C58.9819 128.245 59.2602 128.124 59.4323 127.971C59.659 127.756 59.8372 127.495 59.9551 127.205C60.0729 126.915 60.1275 126.603 60.1154 126.291C60.1149 126.003 60.0099 125.726 59.8201 125.511C59.7333 125.401 59.6224 125.312 59.496 125.251C59.3695 125.191 59.2309 125.16 59.0907 125.161Z" fill="#005EE1"/>
<path d="M78.5476 133.118C79.6922 133.118 80.5778 133.082 81.2043 133.01C81.3681 133.383 81.4504 133.786 81.4456 134.193C81.4456 135.197 81.0072 135.699 80.1302 135.698C79.9693 135.698 79.2983 135.689 78.1172 135.672C76.9362 135.654 75.8358 135.645 74.8162 135.645C73.1346 135.645 71.9361 135.654 71.2206 135.672C71.0414 135.17 70.9519 134.731 70.9519 134.355C70.9519 133.476 71.5591 133.037 72.7736 133.037H74.3304C74.3304 132.75 74.3392 131.823 74.3569 130.255C74.3746 128.686 74.3837 127.31 74.3843 126.127C74.3843 124.066 74.3574 122.176 74.3038 120.455C72.3713 120.652 71.2529 120.778 70.9488 120.835C70.8886 120.488 70.8528 120.138 70.8418 119.786C70.8418 118.674 71.2972 118.066 72.2081 117.961C74.3187 117.693 75.8932 117.558 76.9316 117.558C77.3345 117.551 77.7305 117.663 78.0702 117.881C78.4011 118.096 78.5668 118.436 78.5673 118.903C78.5673 119.047 78.5494 119.54 78.5135 120.382C78.4775 121.224 78.4416 122.286 78.4057 123.568C78.3697 124.849 78.352 126.091 78.3525 127.294V128.692C78.3576 130.657 78.4226 132.132 78.5476 133.118Z" fill="#005EE1"/>
<path d="M89.5244 117.551C90.7055 117.551 91.7176 117.766 92.5606 118.196C93.3634 118.591 94.038 119.206 94.506 119.97C94.9603 120.719 95.2912 121.536 95.486 122.39C96.0541 125.047 95.7963 127.815 94.7474 130.321C94.0599 131.915 92.9569 133.295 91.5541 134.314C90.1135 135.379 88.4436 135.911 86.5444 135.911C85.7571 135.911 85.189 135.799 84.8404 135.575C84.4917 135.351 84.3174 134.925 84.3174 134.298C84.3261 133.863 84.3801 133.43 84.4783 133.006C84.8897 133.131 85.4623 133.194 86.196 133.194C87.8776 133.194 89.1614 132.669 90.0474 131.621C90.9335 130.573 91.4479 129.26 91.5906 127.682C90.5704 128.47 89.4878 128.865 88.3426 128.865C86.7324 128.847 85.4757 128.318 84.5724 127.278C83.6692 126.239 83.2173 124.993 83.2168 123.542C83.2168 121.946 83.7714 120.548 84.8806 119.347C85.9898 118.146 87.5378 117.548 89.5244 117.551ZM89.3096 120.212C88.7191 120.212 88.2541 120.477 87.9145 121.006C87.575 121.535 87.4049 122.176 87.4044 122.928C87.394 123.724 87.5686 124.511 87.9145 125.227C88.2541 125.917 88.8087 126.262 89.5783 126.262C90.1689 126.262 90.8487 126.056 91.6179 125.644C91.6231 124.952 91.5874 124.26 91.5109 123.573C91.4427 123.001 91.3305 122.434 91.1754 121.88C91.0236 121.341 90.7908 120.929 90.477 120.642C90.1581 120.353 89.7397 120.199 89.3096 120.212Z" fill="#005EE1"/>
<path d="M102.782 117.551C103.963 117.551 104.975 117.766 105.819 118.196C106.622 118.591 107.296 119.206 107.764 119.97C108.218 120.719 108.549 121.536 108.744 122.39C109.313 125.047 109.056 127.815 108.006 130.321C107.318 131.915 106.215 133.294 104.812 134.314C103.371 135.379 101.703 135.911 99.8069 135.911C99.019 135.911 98.451 135.799 98.1029 135.575C97.7547 135.351 97.5801 134.925 97.5791 134.298C97.5882 133.863 97.6422 133.43 97.74 133.006C98.1514 133.131 98.724 133.194 99.4578 133.194C101.139 133.194 102.423 132.669 103.309 131.621C104.195 130.573 104.71 129.26 104.852 127.682C103.832 128.47 102.75 128.865 101.605 128.865C99.9944 128.847 98.7374 128.318 97.8342 127.278C96.9309 126.239 96.479 124.993 96.4785 123.542C96.4785 121.946 97.0334 120.548 98.1431 119.347C99.2528 118.146 100.799 117.548 102.782 117.551ZM102.568 120.212C101.978 120.212 101.512 120.477 101.172 121.006C100.832 121.535 100.662 122.176 100.662 122.928C100.652 123.724 100.827 124.511 101.172 125.227C101.512 125.917 102.067 126.262 102.836 126.262C103.427 126.262 104.107 126.056 104.876 125.644C104.881 124.952 104.845 124.26 104.769 123.573C104.701 123.001 104.589 122.434 104.433 121.88C104.281 121.341 104.049 120.929 103.736 120.642C103.416 120.353 102.996 120.199 102.565 120.212H102.568Z" fill="#005EE1"/>
<path d="M118.133 125.859C119.564 126.432 120.54 127.091 121.059 127.836C121.578 128.58 121.837 129.481 121.837 130.538C121.837 131.99 121.184 133.249 119.878 134.316C118.572 135.383 116.782 135.915 114.51 135.913C114.081 135.913 113.656 135.895 113.235 135.86C112.735 135.811 112.238 135.735 111.746 135.631C111.173 135.515 110.708 135.312 110.35 135.023C109.992 134.734 109.813 134.376 109.813 133.947C109.813 133.535 109.974 133.145 110.296 132.778C110.617 132.411 111.036 132.145 111.504 132.011C111.718 132.387 112.112 132.697 112.685 132.939C113.271 133.184 113.901 133.308 114.537 133.302C115.317 133.317 116.078 133.066 116.697 132.59C117.314 132.115 117.623 131.465 117.623 130.64C117.623 129.672 117.306 128.892 116.671 128.301C116.036 127.71 115.19 127.414 114.134 127.414C113.812 127.414 113.566 127.405 113.396 127.387C113.197 127.362 113.003 127.307 112.819 127.226C112.716 127.185 112.623 127.123 112.545 127.045C112.467 126.966 112.405 126.873 112.364 126.77C112.265 126.502 112.219 126.218 112.23 125.933C112.225 125.635 112.252 125.338 112.31 125.046C113.884 125.046 115.07 124.742 115.866 124.133C116.663 123.525 117.061 122.808 117.06 121.982C117.06 121.391 116.89 120.942 116.551 120.638C116.211 120.333 115.773 120.181 115.235 120.182C114.609 120.182 114.002 120.379 113.414 120.773C112.825 121.168 112.431 121.678 112.233 122.305C111.571 122.216 111.061 121.997 110.703 121.647C110.345 121.297 110.166 120.917 110.166 120.506C110.166 119.772 110.703 119.095 111.776 118.477C112.85 117.858 114.191 117.549 115.799 117.549C117.517 117.549 118.858 117.957 119.822 118.773C120.786 119.588 121.269 120.561 121.272 121.689C121.273 123.609 120.227 124.999 118.133 125.859Z" fill="#005EE1"/>
<path d="M128.568 105.723H0V110.153H128.568V105.723Z" fill="#005EE1"/>
</g>
<path d="M152.106 87.215C151.561 87.215 151.103 87.0287 150.73 86.656C150.357 86.2833 150.171 85.8247 150.171 85.28V58.964C150.171 58.4193 150.357 57.9607 150.73 57.588C151.103 57.1867 151.561 56.986 152.106 56.986H161.91C164.633 56.986 166.855 57.4447 168.575 58.362C170.295 59.2793 171.528 60.4547 172.273 61.888C173.018 63.3213 173.391 64.8693 173.391 66.532C173.391 68.1947 173.018 69.7427 172.273 71.176C171.528 72.6093 170.295 73.7847 168.575 74.702C166.855 75.6193 164.633 76.078 161.91 76.078H154.084V85.28C154.084 85.8247 153.883 86.2833 153.482 86.656C153.109 87.0287 152.651 87.215 152.106 87.215ZM161.523 72.38C164.447 72.38 166.497 71.821 167.672 70.703C168.876 69.585 169.478 68.1947 169.478 66.532C169.478 64.8693 168.876 63.479 167.672 62.361C166.497 61.243 164.447 60.684 161.523 60.684H154.084V72.38H161.523ZM180.997 87.215C180.452 87.215 179.993 87.0287 179.621 86.656C179.248 86.2833 179.062 85.8247 179.062 85.28V58.964C179.062 58.4193 179.248 57.9607 179.621 57.588C179.993 57.1867 180.452 56.986 180.997 56.986H191.016C194.914 56.986 197.838 57.7887 199.788 59.394C201.737 60.9993 202.712 63.1063 202.712 65.715C202.712 67.435 202.224 69.0117 201.25 70.445C200.304 71.8497 198.913 72.8673 197.079 73.498C199.143 74.0427 200.547 75.3327 201.293 77.368C202.067 79.3747 202.454 81.3527 202.454 83.302V85.28C202.454 85.8247 202.267 86.2833 201.895 86.656C201.522 87.0287 201.063 87.215 200.519 87.215C199.917 87.215 199.429 87.043 199.057 86.699C198.713 86.3263 198.541 85.8533 198.541 85.28V83.99C198.541 82.5567 198.412 81.238 198.154 80.034C197.896 78.8013 197.279 77.712 196.305 76.766C195.33 75.7913 193.854 75.304 191.876 75.304H182.975V85.28C182.975 85.8247 182.774 86.2833 182.373 86.656C182 87.0287 181.541 87.215 180.997 87.215ZM190.758 71.606C193.223 71.606 195.172 71.1187 196.606 70.144C198.068 69.1693 198.799 67.7933 198.799 66.016C198.799 64.296 198.168 62.9773 196.907 62.06C195.674 61.1427 193.553 60.684 190.543 60.684H182.975V71.606H190.758ZM209.588 87.215C209.015 87.215 208.542 87.0287 208.169 86.656C207.825 86.2833 207.653 85.8247 207.653 85.28C207.653 85.0507 207.725 84.764 207.868 84.42L218.833 58.534C219.062 58.018 219.378 57.6023 219.779 57.287C220.209 56.943 220.725 56.771 221.327 56.771H221.757C222.359 56.771 222.861 56.943 223.262 57.287C223.692 57.6023 224.022 58.018 224.251 58.534L235.216 84.42C235.359 84.764 235.431 85.0507 235.431 85.28C235.431 85.8247 235.245 86.2833 234.872 86.656C234.528 87.0287 234.069 87.215 233.496 87.215C233.095 87.215 232.722 87.1147 232.378 86.914C232.063 86.6847 231.819 86.3837 231.647 86.011L228.852 79.303H214.232L211.437 86.011C211.265 86.3837 211.007 86.6847 210.663 86.914C210.348 87.1147 209.989 87.215 209.588 87.215ZM215.737 75.734H227.347L221.542 61.759L215.737 75.734ZM243.691 87.215C243.146 87.215 242.688 87.0287 242.315 86.656C241.942 86.2833 241.756 85.8247 241.756 85.28V58.749C241.756 58.2043 241.942 57.7457 242.315 57.373C242.688 56.9717 243.146 56.771 243.691 56.771C244.236 56.771 244.694 56.9717 245.067 57.373C245.468 57.7457 245.669 58.2043 245.669 58.749V72.423L260.375 57.459C260.776 57.0003 261.264 56.771 261.837 56.771C262.324 56.771 262.74 56.943 263.084 57.287C263.457 57.6023 263.643 58.0037 263.643 58.491C263.643 59.0643 263.485 59.5087 263.17 59.824L253.237 69.714L264.632 84.076C264.947 84.4773 265.105 84.893 265.105 85.323C265.134 85.839 264.962 86.2833 264.589 86.656C264.216 87.0287 263.758 87.215 263.213 87.215C262.554 87.215 262.038 86.957 261.665 86.441L250.571 72.294L245.669 77.239V85.28C245.669 85.8247 245.468 86.2833 245.067 86.656C244.694 87.0287 244.236 87.215 243.691 87.215ZM269.637 87.215C269.063 87.215 268.59 87.0287 268.218 86.656C267.874 86.2833 267.702 85.8247 267.702 85.28C267.702 85.0507 267.773 84.764 267.917 84.42L278.882 58.534C279.111 58.018 279.426 57.6023 279.828 57.287C280.258 56.943 280.774 56.771 281.376 56.771H281.806C282.408 56.771 282.909 56.943 283.311 57.287C283.741 57.6023 284.07 58.018 284.3 58.534L295.265 84.42C295.408 84.764 295.48 85.0507 295.48 85.28C295.48 85.8247 295.293 86.2833 294.921 86.656C294.577 87.0287 294.118 87.215 293.545 87.215C293.143 87.215 292.771 87.1147 292.427 86.914C292.111 86.6847 291.868 86.3837 291.696 86.011L288.901 79.303H274.281L271.486 86.011C271.314 86.3837 271.056 86.6847 270.712 86.914C270.396 87.1147 270.038 87.215 269.637 87.215ZM275.786 75.734H287.396L281.591 61.759L275.786 75.734ZM311.265 87.43C307.624 87.43 304.213 86.742 301.031 85.366C300.687 85.2227 300.4 84.9933 300.171 84.678C299.941 84.334 299.827 83.9757 299.827 83.603C299.827 83.1157 299.984 82.7 300.3 82.356C300.644 81.9833 301.074 81.797 301.59 81.797C301.876 81.797 302.149 81.8543 302.407 81.969C305.044 83.1443 307.868 83.732 310.878 83.732C315.894 83.732 318.403 82.0837 318.403 78.787C318.403 77.927 318.073 77.2103 317.414 76.637C316.783 76.0637 315.995 75.6193 315.049 75.304C314.103 74.96 312.755 74.5587 311.007 74.1C308.685 73.498 306.807 72.9247 305.374 72.38C303.94 71.8067 302.708 70.961 301.676 69.843C300.644 68.725 300.128 67.2343 300.128 65.371C300.128 63.737 300.558 62.2607 301.418 60.942C302.278 59.5947 303.539 58.534 305.202 57.76C306.893 56.9573 308.914 56.556 311.265 56.556C314.418 56.556 317.27 57.029 319.822 57.975C320.624 58.2617 321.026 58.835 321.026 59.695C321.026 60.1537 320.868 60.5693 320.553 60.942C320.237 61.3147 319.822 61.501 319.306 61.501C319.134 61.501 318.904 61.4437 318.618 61.329C316.382 60.555 314.074 60.168 311.695 60.168C309.43 60.168 307.581 60.598 306.148 61.458C304.743 62.318 304.041 63.522 304.041 65.07C304.041 66.102 304.37 66.9477 305.03 67.607C305.718 68.2377 306.563 68.7393 307.567 69.112C308.599 69.456 309.989 69.8287 311.738 70.23C314.002 70.7747 315.823 71.3193 317.199 71.864C318.603 72.4087 319.793 73.2543 320.768 74.401C321.771 75.5477 322.273 77.0957 322.273 79.045C322.273 80.6503 321.814 82.098 320.897 83.388C319.979 84.6493 318.689 85.6383 317.027 86.355C315.364 87.0717 313.443 87.43 311.265 87.43ZM330.237 87.215C329.692 87.215 329.234 87.0287 328.861 86.656C328.488 86.2833 328.302 85.8247 328.302 85.28V58.749C328.302 58.2043 328.488 57.7457 328.861 57.373C329.234 56.9717 329.692 56.771 330.237 56.771C330.782 56.771 331.24 56.9717 331.613 57.373C332.014 57.7457 332.215 58.2043 332.215 58.749V70.187H348.512V58.749C348.512 58.2043 348.698 57.7457 349.071 57.373C349.444 56.9717 349.902 56.771 350.447 56.771C350.992 56.771 351.45 56.9717 351.823 57.373C352.224 57.7457 352.425 58.2043 352.425 58.749V85.28C352.425 85.8247 352.224 86.2833 351.823 86.656C351.45 87.0287 350.992 87.215 350.447 87.215C349.902 87.215 349.444 87.0287 349.071 86.656C348.698 86.2833 348.512 85.8247 348.512 85.28V73.842H332.215V85.28C332.215 85.8247 332.014 86.2833 331.613 86.656C331.24 87.0287 330.782 87.215 330.237 87.215Z" fill="#005EE1"/>
<path d="M217.076 113H215.222L213.938 109.353H208.278L206.995 113H205.229L209.992 99.9131H212.312L217.076 113ZM213.402 107.858L211.108 101.434L208.806 107.858H213.402ZM229.17 112.051C228.848 112.191 228.555 112.323 228.291 112.446C228.033 112.569 227.693 112.698 227.271 112.833C226.914 112.944 226.524 113.038 226.103 113.114C225.687 113.196 225.227 113.237 224.723 113.237C223.773 113.237 222.909 113.105 222.13 112.842C221.356 112.572 220.683 112.153 220.108 111.585C219.546 111.028 219.106 110.322 218.79 109.467C218.474 108.605 218.315 107.606 218.315 106.47C218.315 105.392 218.468 104.428 218.772 103.578C219.077 102.729 219.517 102.011 220.091 101.425C220.647 100.856 221.318 100.423 222.104 100.124C222.895 99.8252 223.771 99.6758 224.731 99.6758C225.435 99.6758 226.135 99.7607 226.832 99.9307C227.535 100.101 228.314 100.399 229.17 100.827V102.893H229.038C228.317 102.289 227.603 101.85 226.894 101.574C226.185 101.299 225.426 101.161 224.617 101.161C223.955 101.161 223.357 101.27 222.824 101.486C222.297 101.697 221.825 102.028 221.409 102.479C221.005 102.919 220.688 103.476 220.46 104.149C220.237 104.817 220.126 105.591 220.126 106.47C220.126 107.39 220.249 108.181 220.495 108.843C220.747 109.505 221.069 110.044 221.462 110.46C221.872 110.894 222.35 111.216 222.895 111.427C223.445 111.632 224.025 111.734 224.635 111.734C225.473 111.734 226.258 111.591 226.99 111.304C227.723 111.017 228.408 110.586 229.047 110.012H229.17V112.051ZM241.949 113H240.095L238.812 109.353H233.151L231.868 113H230.102L234.865 99.9131H237.186L241.949 113ZM238.275 107.858L235.981 101.434L233.679 107.858H238.275ZM254.992 106.47C254.992 107.659 254.731 108.737 254.21 109.704C253.694 110.671 253.006 111.421 252.145 111.954C251.547 112.323 250.879 112.59 250.141 112.754C249.408 112.918 248.441 113 247.24 113H243.936V99.9131H247.205C248.482 99.9131 249.496 100.007 250.246 100.194C251.002 100.376 251.641 100.628 252.162 100.95C253.053 101.507 253.747 102.248 254.245 103.174C254.743 104.1 254.992 105.198 254.992 106.47ZM253.173 106.443C253.173 105.418 252.994 104.554 252.637 103.851C252.279 103.147 251.746 102.594 251.037 102.189C250.521 101.896 249.974 101.694 249.394 101.583C248.813 101.466 248.119 101.407 247.311 101.407H245.676V111.506H247.311C248.148 111.506 248.878 111.444 249.499 111.321C250.126 111.198 250.7 110.97 251.222 110.636C251.872 110.22 252.358 109.672 252.681 108.992C253.009 108.312 253.173 107.463 253.173 106.443ZM266.427 113H257.805V99.9131H266.427V101.46H259.545V105.046H266.427V106.593H259.545V111.453H266.427V113ZM280.85 113H279.109V101.724L275.471 109.396H274.434L270.821 101.724V113H269.195V99.9131H271.568L275.058 107.199L278.433 99.9131H280.85V113ZM293.629 99.9131L289.023 107.261V113H287.283V107.445L282.66 99.9131H284.585L288.162 105.767L291.774 99.9131H293.629Z" fill="#F9C30B"/>
<line x1="152" y1="108.5" x2="199" y2="108.5" stroke="#F9C30B"/>
<line x1="296" y1="108.5" x2="352" y2="108.5" stroke="#F9C30B"/>
<path d="M362.704 56.06C362.552 56.06 362.424 56.008 362.32 55.904C362.216 55.8 362.164 55.672 362.164 55.52V48.176C362.164 48.024 362.216 47.896 362.32 47.792C362.424 47.68 362.552 47.624 362.704 47.624H365.5C366.588 47.624 367.404 47.848 367.948 48.296C368.492 48.744 368.764 49.332 368.764 50.06C368.764 50.54 368.628 50.98 368.356 51.38C368.092 51.772 367.704 52.056 367.192 52.232C367.768 52.384 368.16 52.744 368.368 53.312C368.584 53.872 368.692 54.424 368.692 54.968V55.52C368.692 55.672 368.64 55.8 368.536 55.904C368.432 56.008 368.304 56.06 368.152 56.06C367.984 56.06 367.848 56.012 367.744 55.916C367.648 55.812 367.6 55.68 367.6 55.52V55.16C367.6 54.76 367.564 54.392 367.492 54.056C367.42 53.712 367.248 53.408 366.976 53.144C366.704 52.872 366.292 52.736 365.74 52.736H363.256V55.52C363.256 55.672 363.2 55.8 363.088 55.904C362.984 56.008 362.856 56.06 362.704 56.06ZM365.428 51.704C366.116 51.704 366.66 51.568 367.06 51.296C367.468 51.024 367.672 50.64 367.672 50.144C367.672 49.664 367.496 49.296 367.144 49.04C366.8 48.784 366.208 48.656 365.368 48.656H363.256V51.704H365.428Z" fill="#005EE1"/>
<circle cx="365" cy="52" r="9.5" stroke="#005EE1"/>
<defs>
<clipPath id="clip0_456_6">
<rect width="128.568" height="135.914" fill="white"/>
</clipPath>
</defs>
</svg>
