<svg width="494" height="188" viewBox="0 0 494 188" fill="none" xmlns="http://www.w3.org/2000/svg">
<path d="M467.704 86.06C467.552 86.06 467.424 86.008 467.32 85.904C467.216 85.8 467.164 85.672 467.164 85.52V78.176C467.164 78.024 467.216 77.896 467.32 77.792C467.424 77.68 467.552 77.624 467.704 77.624H470.5C471.588 77.624 472.404 77.848 472.948 78.296C473.492 78.744 473.764 79.332 473.764 80.06C473.764 80.54 473.628 80.98 473.356 81.38C473.092 81.772 472.704 82.056 472.192 82.232C472.768 82.384 473.16 82.744 473.368 83.312C473.584 83.872 473.692 84.424 473.692 84.968V85.52C473.692 85.672 473.64 85.8 473.536 85.904C473.432 86.008 473.304 86.06 473.152 86.06C472.984 86.06 472.848 86.012 472.744 85.916C472.648 85.812 472.6 85.68 472.6 85.52V85.16C472.6 84.76 472.564 84.392 472.492 84.056C472.42 83.712 472.248 83.408 471.976 83.144C471.704 82.872 471.292 82.736 470.74 82.736H468.256V85.52C468.256 85.672 468.2 85.8 468.088 85.904C467.984 86.008 467.856 86.06 467.704 86.06ZM470.428 81.704C471.116 81.704 471.66 81.568 472.06 81.296C472.468 81.024 472.672 80.64 472.672 80.144C472.672 79.664 472.496 79.296 472.144 79.04C471.8 78.784 471.208 78.656 470.368 78.656H468.256V81.704H470.428Z" fill="white"/>
<circle cx="470" cy="82" r="9.5" stroke="white"/>
<path d="M209.526 123.265C208.855 123.265 208.289 123.035 207.83 122.576C207.371 122.117 207.141 121.551 207.141 120.88V88.444C207.141 87.7727 207.371 87.2073 207.83 86.748C208.289 86.2533 208.855 86.006 209.526 86.006H221.61C224.967 86.006 227.705 86.5713 229.825 87.702C231.945 88.8327 233.464 90.2813 234.383 92.048C235.302 93.8147 235.761 95.7227 235.761 97.772C235.761 99.8213 235.302 101.729 234.383 103.496C233.464 105.263 231.945 106.711 229.825 107.842C227.705 108.973 224.967 109.538 221.61 109.538H211.964V120.88C211.964 121.551 211.717 122.117 211.222 122.576C210.763 123.035 210.197 123.265 209.526 123.265ZM221.133 104.98C224.737 104.98 227.263 104.291 228.712 102.913C230.196 101.535 230.938 99.8213 230.938 97.772C230.938 95.7227 230.196 94.009 228.712 92.631C227.263 91.253 224.737 90.564 221.133 90.564H211.964V104.98H221.133ZM245.135 123.265C244.464 123.265 243.899 123.035 243.439 122.576C242.98 122.117 242.75 121.551 242.75 120.88V88.444C242.75 87.7727 242.98 87.2073 243.439 86.748C243.899 86.2533 244.464 86.006 245.135 86.006H257.484C262.29 86.006 265.894 86.9953 268.296 88.974C270.699 90.9527 271.9 93.5497 271.9 96.765C271.9 98.885 271.3 100.828 270.098 102.595C268.932 104.326 267.219 105.581 264.957 106.358C267.501 107.029 269.233 108.619 270.151 111.128C271.105 113.601 271.582 116.039 271.582 118.442V120.88C271.582 121.551 271.353 122.117 270.893 122.576C270.434 123.035 269.869 123.265 269.197 123.265C268.455 123.265 267.855 123.053 267.395 122.629C266.971 122.17 266.759 121.587 266.759 120.88V119.29C266.759 117.523 266.6 115.898 266.282 114.414C265.964 112.895 265.205 111.552 264.003 110.386C262.802 109.185 260.982 108.584 258.544 108.584H247.573V120.88C247.573 121.551 247.326 122.117 246.831 122.576C246.372 123.035 245.807 123.265 245.135 123.265ZM257.166 104.026C260.205 104.026 262.608 103.425 264.374 102.224C266.176 101.023 267.077 99.3267 267.077 97.136C267.077 95.016 266.3 93.3907 264.745 92.26C263.226 91.1293 260.611 90.564 256.901 90.564H247.573V104.026H257.166ZM280.376 123.265C279.669 123.265 279.086 123.035 278.627 122.576C278.203 122.117 277.991 121.551 277.991 120.88C277.991 120.597 278.079 120.244 278.256 119.82L291.771 87.914C292.053 87.278 292.442 86.7657 292.937 86.377C293.467 85.953 294.103 85.741 294.845 85.741H295.375C296.117 85.741 296.735 85.953 297.23 86.377C297.76 86.7657 298.166 87.278 298.449 87.914L311.964 119.82C312.14 120.244 312.229 120.597 312.229 120.88C312.229 121.551 311.999 122.117 311.54 122.576C311.116 123.035 310.55 123.265 309.844 123.265C309.349 123.265 308.89 123.141 308.466 122.894C308.077 122.611 307.777 122.24 307.565 121.781L304.12 113.513H286.1L282.655 121.781C282.443 122.24 282.125 122.611 281.701 122.894C281.312 123.141 280.87 123.265 280.376 123.265ZM287.955 109.114H302.265L295.11 91.889L287.955 109.114ZM322.41 123.265C321.738 123.265 321.173 123.035 320.714 122.576C320.254 122.117 320.025 121.551 320.025 120.88V88.179C320.025 87.5077 320.254 86.9423 320.714 86.483C321.173 85.9883 321.738 85.741 322.41 85.741C323.081 85.741 323.646 85.9883 324.106 86.483C324.6 86.9423 324.848 87.5077 324.848 88.179V105.033L342.974 86.589C343.468 86.0237 344.069 85.741 344.776 85.741C345.376 85.741 345.889 85.953 346.313 86.377C346.772 86.7657 347.002 87.2603 347.002 87.861C347.002 88.5677 346.807 89.1153 346.419 89.504L334.176 101.694L348.221 119.396C348.609 119.891 348.804 120.403 348.804 120.933C348.839 121.569 348.627 122.117 348.168 122.576C347.708 123.035 347.143 123.265 346.472 123.265C345.659 123.265 345.023 122.947 344.564 122.311L330.89 104.874L324.848 110.969V120.88C324.848 121.551 324.6 122.117 324.106 122.576C323.646 123.035 323.081 123.265 322.41 123.265ZM354.389 123.265C353.683 123.265 353.1 123.035 352.64 122.576C352.216 122.117 352.004 121.551 352.004 120.88C352.004 120.597 352.093 120.244 352.269 119.82L365.784 87.914C366.067 87.278 366.456 86.7657 366.95 86.377C367.48 85.953 368.116 85.741 368.858 85.741H369.388C370.13 85.741 370.749 85.953 371.243 86.377C371.773 86.7657 372.18 87.278 372.462 87.914L385.977 119.82C386.154 120.244 386.242 120.597 386.242 120.88C386.242 121.551 386.013 122.117 385.553 122.576C385.129 123.035 384.564 123.265 383.857 123.265C383.363 123.265 382.903 123.141 382.479 122.894C382.091 122.611 381.79 122.24 381.578 121.781L378.133 113.513H360.113L356.668 121.781C356.456 122.24 356.138 122.611 355.714 122.894C355.326 123.141 354.884 123.265 354.389 123.265ZM361.968 109.114H376.278L369.123 91.889L361.968 109.114ZM405.698 123.53C401.211 123.53 397.006 122.682 393.084 120.986C392.66 120.809 392.307 120.527 392.024 120.138C391.742 119.714 391.6 119.272 391.6 118.813C391.6 118.212 391.795 117.7 392.183 117.276C392.607 116.817 393.137 116.587 393.773 116.587C394.127 116.587 394.462 116.658 394.78 116.799C398.031 118.248 401.511 118.972 405.221 118.972C411.405 118.972 414.496 116.94 414.496 112.877C414.496 111.817 414.09 110.934 413.277 110.227C412.5 109.52 411.528 108.973 410.362 108.584C409.196 108.16 407.536 107.665 405.38 107.1C402.518 106.358 400.204 105.651 398.437 104.98C396.671 104.273 395.151 103.231 393.879 101.853C392.607 100.475 391.971 98.6377 391.971 96.341C391.971 94.327 392.501 92.5073 393.561 90.882C394.621 89.2213 396.176 87.914 398.225 86.96C400.31 85.9707 402.801 85.476 405.698 85.476C409.585 85.476 413.101 86.059 416.245 87.225C417.235 87.5783 417.729 88.285 417.729 89.345C417.729 89.9103 417.535 90.4227 417.146 90.882C416.758 91.3413 416.245 91.571 415.609 91.571C415.397 91.571 415.115 91.5003 414.761 91.359C412.005 90.405 409.161 89.928 406.228 89.928C403.437 89.928 401.158 90.458 399.391 91.518C397.66 92.578 396.794 94.062 396.794 95.97C396.794 97.242 397.201 98.2843 398.013 99.097C398.861 99.8743 399.904 100.493 401.14 100.952C402.412 101.376 404.126 101.835 406.281 102.33C409.073 103.001 411.316 103.673 413.012 104.344C414.744 105.015 416.21 106.058 417.411 107.471C418.648 108.884 419.266 110.792 419.266 113.195C419.266 115.174 418.701 116.958 417.57 118.548C416.44 120.103 414.85 121.322 412.8 122.205C410.751 123.088 408.384 123.53 405.698 123.53ZM429.083 123.265C428.411 123.265 427.846 123.035 427.387 122.576C426.927 122.117 426.698 121.551 426.698 120.88V88.179C426.698 87.5077 426.927 86.9423 427.387 86.483C427.846 85.9883 428.411 85.741 429.083 85.741C429.754 85.741 430.319 85.9883 430.779 86.483C431.273 86.9423 431.521 87.5077 431.521 88.179V102.277H451.608V88.179C451.608 87.5077 451.837 86.9423 452.297 86.483C452.756 85.9883 453.321 85.741 453.993 85.741C454.664 85.741 455.229 85.9883 455.689 86.483C456.183 86.9423 456.431 87.5077 456.431 88.179V120.88C456.431 121.551 456.183 122.117 455.689 122.576C455.229 123.035 454.664 123.265 453.993 123.265C453.321 123.265 452.756 123.035 452.297 122.576C451.837 122.117 451.608 121.551 451.608 120.88V106.782H431.521V120.88C431.521 121.551 431.273 122.117 430.779 122.576C430.319 123.035 429.754 123.265 429.083 123.265Z" fill="white"/>
<path d="M294.089 152H291.925L290.428 147.745H283.825L282.328 152H280.267L285.824 136.732H288.531L294.089 152ZM289.803 146.001L287.126 138.506L284.44 146.001H289.803ZM308.198 150.893C307.822 151.057 307.48 151.21 307.173 151.354C306.872 151.498 306.476 151.648 305.983 151.805C305.566 151.935 305.112 152.044 304.62 152.133C304.134 152.229 303.598 152.277 303.01 152.277C301.902 152.277 300.894 152.123 299.985 151.815C299.083 151.501 298.296 151.012 297.626 150.349C296.97 149.7 296.458 148.876 296.088 147.878C295.719 146.873 295.535 145.708 295.535 144.381C295.535 143.124 295.712 141.999 296.068 141.008C296.423 140.017 296.936 139.179 297.606 138.496C298.255 137.833 299.038 137.327 299.954 136.978C300.877 136.629 301.899 136.455 303.02 136.455C303.84 136.455 304.657 136.554 305.471 136.752C306.291 136.951 307.2 137.299 308.198 137.798V140.208H308.044C307.204 139.504 306.37 138.991 305.542 138.67C304.715 138.349 303.83 138.188 302.887 138.188C302.114 138.188 301.417 138.314 300.795 138.567C300.18 138.813 299.629 139.2 299.144 139.726C298.672 140.239 298.303 140.888 298.037 141.674C297.777 142.454 297.647 143.356 297.647 144.381C297.647 145.455 297.791 146.377 298.078 147.15C298.372 147.922 298.748 148.551 299.206 149.037C299.684 149.542 300.241 149.918 300.877 150.165C301.52 150.404 302.196 150.523 302.907 150.523C303.885 150.523 304.801 150.356 305.655 150.021C306.51 149.686 307.31 149.184 308.055 148.514H308.198V150.893ZM323.107 152H320.944L319.447 147.745H312.843L311.346 152H309.285L314.843 136.732H317.55L323.107 152ZM318.821 146.001L316.145 138.506L313.458 146.001H318.821ZM338.324 144.381C338.324 145.769 338.02 147.027 337.412 148.155C336.81 149.283 336.007 150.158 335.002 150.78C334.305 151.21 333.525 151.521 332.664 151.713C331.81 151.904 330.682 152 329.28 152H325.425V136.732H329.239C330.729 136.732 331.912 136.841 332.787 137.06C333.669 137.272 334.414 137.566 335.022 137.942C336.062 138.591 336.872 139.456 337.453 140.536C338.034 141.616 338.324 142.898 338.324 144.381ZM336.202 144.351C336.202 143.154 335.993 142.146 335.576 141.326C335.159 140.505 334.537 139.859 333.71 139.388C333.108 139.046 332.469 138.81 331.792 138.68C331.116 138.543 330.306 138.475 329.362 138.475H327.455V150.257H329.362C330.34 150.257 331.191 150.185 331.916 150.042C332.647 149.898 333.317 149.631 333.925 149.242C334.684 148.756 335.251 148.117 335.627 147.324C336.01 146.531 336.202 145.54 336.202 144.351ZM351.665 152H341.605V136.732H351.665V138.537H343.636V142.72H351.665V144.525H343.636V150.195H351.665V152ZM368.491 152H366.461V138.844L362.216 147.796H361.006L356.792 138.844V152H354.895V136.732H357.663L361.734 145.232L365.671 136.732H368.491V152ZM383.4 136.732L378.027 145.304V152H375.997V145.52L370.604 136.732H372.849L377.022 143.561L381.237 136.732H383.4Z" fill="white"/>
<line x1="209" y1="144.5" x2="274" y2="144.5" stroke="white"/>
<line x1="391" y1="145.5" x2="456" y2="145.5" stroke="white"/>
<path d="M42 99C42 99 46.0595 104.985 46.8713 107.255C51.54 108.288 72.6481 117.782 83 125C83.0021 125.01 66.5595 105.402 42 99Z" fill="white"/>
<path d="M12 108.116L28.3963 122.686C28.3963 122.686 63.7385 118.74 83 128C78.0426 123.294 53.525 106.446 12 108.116Z" fill="white"/>
<path d="M135 99C135 99 130.941 104.985 130.129 107.255C125.46 108.288 104.352 117.782 94 125C93.9958 125.01 110.441 105.402 135 99Z" fill="white"/>
<path d="M165 108.116L148.604 122.686C148.604 122.686 113.262 118.74 94 128C98.9595 123.294 123.477 106.446 165 108.116Z" fill="white"/>
<path d="M8 127.528C8 127.528 59.5586 127.974 89.3807 140C102.843 132.428 135.682 128.518 170 127.528C136.906 121.935 106.208 122.984 88.9984 131.096C69.7012 123.618 43.1858 121.44 8 127.528Z" fill="white"/>
<path d="M112.25 48.7891C110.113 46.6334 107.573 44.9239 104.777 43.7588C101.981 42.5937 98.9832 41.996 95.9567 42H72V100.179C71.9999 101.732 72.3037 103.269 72.894 104.703C73.4844 106.137 74.3498 107.44 75.4408 108.538C76.5318 109.635 77.8271 110.506 79.2526 111.1C80.6781 111.694 82.206 112 83.749 112H89.7004V88.36H95.9567C108.683 88.36 119 77.9831 119 65.1784C119.003 62.134 118.409 59.1189 117.251 56.3063C116.092 53.4937 114.393 50.9391 112.25 48.7891ZM91.8372 74.7482H89.5978V55.5096H91.8372C94.3731 55.5096 96.8052 56.5231 98.5985 58.327C100.392 60.131 101.399 62.5777 101.399 65.1289C101.399 67.6801 100.392 70.1268 98.5985 71.9308C96.8052 73.7348 94.3731 74.7482 91.8372 74.7482Z" fill="white"/>
<path d="M89.375 0H87.625C86.1753 0 85 1.1684 85 2.60968V13.3903C85 14.8316 86.1753 16 87.625 16H89.375C90.8247 16 92 14.8316 92 13.3903V2.60968C92 1.1684 90.8247 0 89.375 0Z" fill="#F9C30B"/>
<path d="M76.7316 0.92173L75.012 1.23448C73.5875 1.49358 72.6423 2.86052 72.9009 4.28763L74.8354 14.9622C75.0941 16.3893 76.4586 17.3362 77.8831 17.0771L79.6027 16.7644C81.0273 16.5053 81.9724 15.1383 81.7138 13.7112L79.7793 3.03662C79.5207 1.6095 78.1562 0.662638 76.7316 0.92173Z" fill="#F9C30B"/>
<path d="M64.205 4.23127L62.5697 4.84606C61.2141 5.35567 60.5276 6.86965 61.0363 8.22761L64.8414 18.385C65.3501 19.743 66.8613 20.4307 68.2169 19.9211L69.8522 19.3063C71.2077 18.7967 71.8942 17.2827 71.3855 15.9247L67.5805 5.76734C67.0718 4.40938 65.5605 3.72166 64.205 4.23127Z" fill="#F9C30B"/>
<path d="M52.4685 9.7136L50.9692 10.6111C49.7263 11.3551 49.3208 12.9676 50.0635 14.2127L55.6185 23.5258C56.3611 24.7709 57.9707 25.1771 59.2136 24.4331L60.713 23.5356C61.9558 22.7916 62.3613 21.1791 61.6187 19.934L56.0637 10.6209C55.321 9.37583 53.7114 8.9696 52.4685 9.7136Z" fill="#F9C30B"/>
<path d="M41.8991 17.2184L40.5837 18.3696C39.4933 19.3238 39.3816 20.9829 40.3341 22.0753L47.459 30.2457C48.4115 31.3381 50.0676 31.45 51.158 30.4958L52.4734 29.3446C53.5638 28.3903 53.6756 26.7313 52.723 25.6389L45.5981 17.4684C44.6456 16.3761 42.9895 16.2642 41.8991 17.2184Z" fill="#F9C30B"/>
<path d="M32.8364 26.4835L31.7468 27.8524C30.8441 28.9865 31.03 30.6388 32.162 31.5432L40.6291 38.3072C41.7611 39.2115 43.4106 39.0253 44.3133 37.8913L45.4029 36.5224C46.3056 35.3884 46.1197 33.736 44.9877 32.8317L36.5205 26.0676C35.3885 25.1633 33.7391 25.3495 32.8364 26.4835Z" fill="#F9C30B"/>
<path d="M25.5717 37.2307L24.7434 38.7724C24.0572 40.0496 24.5345 41.6422 25.8094 42.3296L35.3456 47.4714C36.6205 48.1588 38.2103 47.6807 38.8965 46.4035L39.7248 44.8618C40.411 43.5846 39.9337 41.9919 38.6588 41.3045L29.1226 36.1628C27.8477 35.4754 26.2579 35.9535 25.5717 37.2307Z" fill="#F9C30B"/>
<path d="M20.3375 49.0952L19.7974 50.7603C19.35 52.1398 20.1036 53.6214 21.4806 54.0696L31.7802 57.4222C33.1572 57.8704 34.6362 57.1155 35.0836 55.736L35.6236 54.0709C36.0711 52.6914 35.3175 51.2098 33.9405 50.7616L23.6408 47.409C22.2639 46.9608 20.7849 47.7157 20.3375 49.0952Z" fill="#F9C30B"/>
<path d="M17.0621 61.4509L16.8349 63.1842C16.6467 64.6201 17.6561 65.937 19.0895 66.1256L29.8109 67.536C31.2443 67.7245 32.5588 66.7133 32.747 65.2774L32.9742 63.5441C33.1625 62.1081 32.1531 60.7912 30.7197 60.6027L19.9983 59.1923C18.5649 59.0037 17.2504 60.0149 17.0621 61.4509Z" fill="#F9C30B"/>
<path d="M29.8821 71.4368L19.0633 71.9233C17.6169 71.9883 16.497 73.2156 16.5619 74.6646L16.6402 76.4127C16.7051 77.8616 17.9303 78.9835 19.3767 78.9185L30.1955 78.432C31.6419 78.367 32.7618 77.1396 32.6969 75.6907L32.6185 73.9426C32.5536 72.4936 31.3285 71.3717 29.8821 71.4368Z" fill="#F9C30B"/>
<path d="M30.6842 81.9771L20.1261 84.3918C18.7146 84.7146 17.8315 86.1226 18.1538 87.5367L18.5428 89.2436C18.865 90.6577 20.2705 91.5423 21.6821 91.2195L32.2401 88.8048C33.6517 88.482 34.5347 87.074 34.2124 85.6599L33.8235 83.953C33.5012 82.5389 32.0957 81.6543 30.6842 81.9771Z" fill="#F9C30B"/>
<path d="M33.3359 92.2213L23.3774 96.4848C22.0461 97.0548 21.428 98.5981 21.997 99.9318L22.6838 101.542C23.2528 102.876 24.7933 103.495 26.1247 102.925L36.0831 98.6612C37.4145 98.0912 38.0325 96.5479 37.4636 95.2142L36.7767 93.6042C36.2078 92.2705 34.6672 91.6513 33.3359 92.2213Z" fill="#F9C30B"/>
<path d="M140.755 93.592L140.068 95.202C139.499 96.5357 140.117 98.079 141.449 98.649L151.407 102.912C152.739 103.482 154.279 102.863 154.848 101.53L155.535 99.9196C156.104 98.5858 155.486 97.0425 154.154 96.4726L144.196 92.2091C142.865 91.6391 141.324 92.2583 140.755 93.592Z" fill="#F9C30B"/>
<path d="M143.73 83.9632L143.341 85.6701C143.019 87.0841 143.902 88.4922 145.314 88.815L155.872 91.2297C157.283 91.5525 158.689 90.6679 159.011 89.2538L159.4 87.5469C159.722 86.1328 158.839 84.7248 157.428 84.402L146.87 81.9873C145.458 81.6645 144.053 82.5491 143.73 83.9632Z" fill="#F9C30B"/>
<path d="M144.915 73.9377L144.836 75.6857C144.771 77.1347 145.891 78.362 147.338 78.4271L158.156 78.9136C159.603 78.9786 160.828 77.8567 160.893 76.4077L160.971 74.6597C161.036 73.2107 159.916 71.9834 158.47 71.9183L147.651 71.4318C146.205 71.3668 144.98 72.4887 144.915 73.9377Z" fill="#F9C30B"/>
<path d="M157.286 59.4712L146.554 60.9267C145.119 61.1213 144.114 62.4442 144.308 63.8816L144.542 65.6166C144.736 67.0539 146.057 68.0613 147.492 67.8668L158.224 66.4113C159.658 66.2167 160.664 64.8937 160.47 63.4564L160.235 61.7214C160.041 60.2841 158.72 59.2766 157.286 59.4712Z" fill="#F9C30B"/>
<path d="M153.9 47.4108L143.601 50.7634C142.224 51.2116 141.47 52.6932 141.918 54.0727L142.458 55.7378C142.905 57.1173 144.384 57.8722 145.761 57.424L156.061 54.0714C157.438 53.6232 158.191 52.1416 157.744 50.7621L157.204 49.097C156.756 47.7176 155.277 46.9626 153.9 47.4108Z" fill="#F9C30B"/>
<path d="M148.416 36.1458L138.88 41.2875C137.605 41.975 137.128 43.5676 137.814 44.8448L138.642 46.3865C139.328 47.6637 140.918 48.1418 142.193 47.4544L151.729 42.3127C153.004 41.6252 153.481 40.0326 152.795 38.7554L151.967 37.2137C151.281 35.9365 149.691 35.4584 148.416 36.1458Z" fill="#F9C30B"/>
<path d="M141.023 26.0717L132.556 32.8357C131.424 33.7401 131.238 35.3925 132.14 36.5265L133.23 37.8954C134.133 39.0294 135.782 39.2156 136.914 38.3113L145.381 31.5472C146.513 30.6429 146.699 28.9905 145.796 27.8565L144.707 26.4876C143.804 25.3536 142.155 25.1674 141.023 26.0717Z" fill="#F9C30B"/>
<path d="M131.939 17.4635L124.815 25.634C123.862 26.7263 123.974 28.3854 125.064 29.3396L126.38 30.4908C127.47 31.4451 129.126 31.3331 130.079 30.2408L137.203 22.0703C138.156 20.978 138.044 19.3189 136.954 18.3646L135.638 17.2134C134.548 16.2592 132.892 16.3711 131.939 17.4635Z" fill="#F9C30B"/>
<path d="M121.483 10.6297L115.928 19.9428C115.185 21.1879 115.591 22.8004 116.833 23.5444L118.333 24.4419C119.576 25.1859 121.185 24.7797 121.928 23.5346L127.483 14.2215C128.226 12.9764 127.82 11.3639 126.577 10.6199L125.078 9.72241C123.835 8.97842 122.225 9.38463 121.483 10.6297Z" fill="#F9C30B"/>
<path d="M109.958 5.76294L106.153 15.9203C105.644 17.2783 106.33 18.7923 107.686 19.3019L109.321 19.9167C110.677 20.4263 112.188 19.7386 112.697 18.3806L116.502 8.22321C117.01 6.86524 116.324 5.35127 114.968 4.84166L113.333 4.22687C111.978 3.71725 110.466 4.40498 109.958 5.76294Z" fill="#F9C30B"/>
<path d="M97.771 3.04608L95.8365 13.7207C95.5778 15.1478 96.523 16.5147 97.9476 16.7738L99.6672 17.0866C101.092 17.3457 102.456 16.3988 102.715 14.9717L104.649 4.29709C104.908 2.86998 103.963 1.50304 102.538 1.24395L100.819 0.931199C99.3941 0.672106 98.0296 1.61897 97.771 3.04608Z" fill="#F9C30B"/>
<path d="M24.3873 169.401C23.9928 168.693 23.2669 168.076 22.2094 167.551C21.152 167.027 20.1314 166.764 19.1477 166.764C18.3358 166.764 17.6777 166.978 17.1733 167.405C16.6689 167.833 16.4167 168.486 16.4167 169.364C16.4105 169.736 16.4847 170.105 16.6343 170.446C16.7839 170.787 17.0054 171.092 17.2839 171.341C17.8947 171.895 18.6261 172.302 19.4211 172.529C20.2698 172.785 21.1982 173.108 22.2063 173.499C23.157 173.863 24.0872 174.278 24.9925 174.742C25.8406 175.181 26.554 175.865 27.1328 176.792C27.7116 177.72 28.0007 178.843 28 180.161C28 181.602 27.7217 182.846 27.1652 183.895C26.653 184.901 25.8671 185.745 24.8965 186.33C23.9415 186.904 22.9047 187.331 21.8212 187.597C20.6674 187.873 19.484 188.008 18.2972 188C16.0341 188 14.0862 187.682 12.4534 187.048C10.8206 186.414 10.0028 185.585 10 184.563C10 183.803 10.2087 183.193 10.6261 182.732C11.0435 182.271 11.757 181.77 12.7664 181.231C13.3814 182.086 14.3039 182.8 15.5339 183.373C16.7639 183.946 17.9552 184.232 19.108 184.23C20.0917 184.23 20.8918 183.998 21.5081 183.535C22.1245 183.071 22.432 182.351 22.4306 181.374C22.4306 180.447 22.0306 179.702 21.2306 179.141C20.3445 178.539 19.3668 178.081 18.3347 177.786C17.1821 177.437 16.049 177.028 14.9401 176.559C13.8082 176.083 12.8426 175.296 12.0432 174.198C11.2439 173.101 10.8442 171.686 10.8442 169.953C10.8442 168.71 11.1148 167.624 11.6561 166.694C12.1778 165.788 12.9345 165.037 13.8475 164.52C14.7923 163.987 15.8125 163.598 16.8738 163.367C18.0434 163.115 19.2375 162.992 20.4343 163C22.4519 163 24.1862 163.293 25.6374 163.88C27.0886 164.466 27.8142 165.283 27.8142 166.333C27.8142 166.968 27.5127 167.566 26.9095 168.126C26.3063 168.687 25.4656 169.112 24.3873 169.401Z" fill="white"/>
<path d="M32.4798 168.113C32.0213 168.121 31.5659 168.037 31.1416 167.863C30.7174 167.69 30.3335 167.432 30.0136 167.105C29.3382 166.434 29.0005 165.578 29.0005 164.537C28.9923 164.068 29.0833 163.601 29.2677 163.169C29.4521 162.737 29.7257 162.348 30.0709 162.028C30.3957 161.7 30.7829 161.44 31.21 161.264C31.6371 161.088 32.0953 160.998 32.5577 161C33.0119 160.995 33.4622 161.084 33.8802 161.26C34.2982 161.437 34.6748 161.698 34.9861 162.028C35.3162 162.356 35.5761 162.748 35.7502 163.179C35.9243 163.611 36.009 164.072 35.9991 164.537C36.0098 165.013 35.9201 165.485 35.7357 165.924C35.5513 166.363 35.2764 166.759 34.9288 167.085C34.2101 167.77 33.3938 168.113 32.4798 168.113ZM32.5555 169.71C33.5243 169.71 34.2764 169.875 34.812 170.204C35.3475 170.533 35.615 171.178 35.6142 172.14C35.6142 172.292 35.5695 173.408 35.4802 175.487C35.3908 177.565 35.3465 179.125 35.3472 180.165C35.3472 183.766 35.5634 186.213 35.9959 187.505C34.9693 187.828 33.8994 187.995 32.8226 188C31.6246 188 30.7899 187.791 30.3185 187.372C29.8471 186.953 29.6103 186.342 29.6082 185.539C29.6082 185.134 29.6273 184.183 29.6655 182.686C29.7037 181.189 29.7228 179.998 29.7228 179.111C29.7228 175.485 29.6334 172.519 29.4546 170.21C30.4519 169.875 31.4984 169.706 32.5512 169.711L32.5555 169.71Z" fill="white"/>
<path d="M37 170.704C37.9463 170.397 38.9351 170.235 39.9314 170.224C41.7596 170.224 42.7995 170.951 43.051 172.404C44.6808 170.801 46.5348 170 48.6131 170C50.3137 170 51.7167 170.481 52.8221 171.442C53.9275 172.403 54.4785 173.77 54.4749 175.544C54.4749 175.594 54.4562 176.481 54.4186 178.205C54.381 179.929 54.3623 181.235 54.3623 182.123C54.3623 184.243 54.5748 186.042 55 187.519C53.9403 187.837 52.8385 187.999 51.7306 188C49.726 188 48.724 187.248 48.7247 185.745C48.7247 184.858 48.7623 183.226 48.8374 180.848C48.9125 178.47 48.95 177.035 48.95 176.542C48.95 175.532 48.7431 174.774 48.3293 174.268C48.1425 174.028 47.9009 173.834 47.6239 173.703C47.347 173.571 47.0425 173.506 46.735 173.511C45.6827 173.511 44.5174 174.115 43.2391 175.322C43.2895 178.477 43.3146 180.756 43.3146 182.16C43.3146 184.329 43.3773 186.226 43.5027 187.852C42.6758 187.926 41.9368 187.963 41.2856 187.962C38.7793 187.962 37.5265 187.37 37.5272 186.185C37.5272 186.087 37.5584 185.225 37.6207 183.598C37.6831 181.971 37.7146 180.284 37.7153 178.534C37.7146 174.522 37.4762 171.911 37 170.704Z" fill="white"/>
<path d="M65.5485 184.534C66.3268 184.536 67.0919 184.341 67.7673 183.971C68.4214 183.64 68.927 183.091 69.1893 182.428C70.326 182.815 71.0717 183.192 71.4263 183.559C71.7777 183.911 71.9703 184.381 71.9625 184.868C71.9625 185.862 71.3548 186.631 70.1394 187.177C68.924 187.723 67.3441 187.997 65.3995 188C62.5684 188 60.2931 187.243 58.5737 185.728C56.8543 184.214 55.9964 182.098 56 179.383C56 177.782 56.286 176.364 56.8579 175.128C57.4299 173.892 58.1691 172.91 59.0756 172.182C59.9527 171.473 60.9541 170.919 62.0332 170.546C63.0648 170.187 64.1532 170.003 65.2504 170C66.8267 169.997 68.3853 170.32 69.8198 170.946C71.2726 171.577 71.9993 172.449 72 173.564C72 175.043 70.7614 175.927 68.2842 176.218C68.0568 175.395 67.6526 174.741 67.0713 174.255C66.5442 173.791 65.8562 173.532 65.141 173.528C64.2059 173.528 63.397 173.982 62.7142 174.891C62.0315 175.801 61.6872 177.136 61.6815 178.897C61.6815 182.656 62.9705 184.535 65.5485 184.534Z" fill="white"/>
<path d="M82.2895 170C84.1081 170 85.6814 170.449 87.0093 171.346C88.3371 172.243 89.0007 173.576 89 175.345C89 178.932 86.3947 180.726 81.1841 180.725C80.7155 180.725 79.8673 180.701 78.6396 180.652C78.6396 182.034 78.99 183.04 79.6907 183.669C80.3915 184.299 81.2578 184.614 82.2895 184.614C84.1081 184.614 85.5215 184.032 86.5296 182.866C87.0693 183.115 87.5427 183.484 87.9123 183.944C88.269 184.392 88.4473 184.847 88.4473 185.307C88.4473 186.034 88.0111 186.616 87.1386 187.055C86.3444 187.467 85.4832 187.737 84.5941 187.855C83.8051 187.95 83.0112 187.998 82.2165 188C79.5114 188 77.2989 187.267 75.5789 185.801C73.8589 184.335 72.9993 182.097 73 179.089C73 177.101 73.4731 175.399 74.4193 173.981C75.3655 172.564 76.5209 171.546 77.8856 170.928C79.2675 170.306 80.7705 169.989 82.2895 170ZM81.9943 173.457C81.11 173.457 80.3359 173.851 79.672 174.638C79.008 175.426 78.6639 176.583 78.6396 178.11C79.3264 178.062 79.8131 178.02 80.0995 177.983C80.386 177.946 80.7916 177.867 81.3165 177.746C81.8449 177.626 82.2272 177.462 82.4636 177.256C82.7751 176.965 83.02 176.612 83.1818 176.22C83.3437 175.828 83.4188 175.406 83.4021 174.984C83.4015 174.595 83.2572 174.221 82.9965 173.93C82.8772 173.781 82.7249 173.661 82.5511 173.579C82.3774 173.497 82.1869 173.455 81.9943 173.457Z" fill="white"/>
<path d="M108.9 184.443C110.519 184.443 111.772 184.394 112.658 184.296C112.89 184.809 113.006 185.365 113 185.926C113 187.309 112.379 188.001 111.139 188C110.911 188 109.962 187.988 108.292 187.963C106.621 187.939 105.064 187.927 103.622 187.927C101.243 187.927 99.5479 187.939 98.5358 187.963C98.2824 187.272 98.1557 186.667 98.1557 186.148C98.1557 184.938 99.0147 184.332 100.733 184.332H102.935C102.935 183.937 102.947 182.659 102.972 180.498C102.997 178.336 103.01 176.44 103.011 174.81C103.011 171.97 102.973 169.364 102.897 166.992C100.164 167.264 98.5816 167.438 98.1514 167.516C98.0662 167.038 98.0156 166.555 98 166.071C98 164.539 98.6442 163.7 99.9327 163.556C102.918 163.186 105.146 163 106.614 163C107.184 162.991 107.745 163.145 108.225 163.445C108.693 163.741 108.928 164.21 108.928 164.853C108.928 165.052 108.903 165.731 108.852 166.891C108.801 168.052 108.75 169.515 108.7 171.282C108.649 173.048 108.624 174.759 108.624 176.417V178.344C108.632 181.052 108.723 183.085 108.9 184.443Z" fill="white"/>
<path d="M123.535 163C125.133 163 126.502 163.293 127.643 163.879C128.729 164.417 129.642 165.255 130.276 166.295C130.89 167.314 131.338 168.426 131.601 169.589C132.37 173.207 132.021 176.976 130.602 180.389C129.672 182.559 128.179 184.437 126.281 185.826C124.332 187.275 122.072 188 119.503 188C118.437 188 117.669 187.847 117.197 187.542C116.725 187.237 116.489 186.658 116.489 185.804C116.501 185.211 116.574 184.621 116.707 184.044C117.264 184.214 118.038 184.3 119.031 184.3C121.307 184.3 123.044 183.586 124.243 182.158C125.441 180.731 126.137 178.943 126.331 176.795C124.95 177.869 123.485 178.406 121.936 178.406C119.757 178.381 118.057 177.661 116.834 176.245C115.612 174.83 115.001 173.134 115 171.158C115 168.985 115.75 167.082 117.251 165.447C118.752 163.811 120.847 162.996 123.535 163ZM123.244 166.624C122.445 166.624 121.816 166.984 121.357 167.705C120.897 168.425 120.667 169.298 120.666 170.322C120.652 171.405 120.888 172.477 121.357 173.452C121.816 174.391 122.566 174.861 123.608 174.861C124.407 174.861 125.327 174.581 126.368 174.019C126.375 173.078 126.326 172.136 126.223 171.2C126.13 170.421 125.979 169.65 125.769 168.894C125.563 168.161 125.248 167.6 124.824 167.21C124.392 166.816 123.826 166.606 123.244 166.624Z" fill="white"/>
<path d="M142.034 163C143.726 163 145.177 163.293 146.385 163.879C147.535 164.417 148.502 165.255 149.173 166.295C149.824 167.314 150.298 168.426 150.577 169.589C151.392 173.207 151.023 176.977 149.52 180.389C148.533 182.559 146.952 184.437 144.942 185.826C142.878 187.275 140.487 188 137.77 188C136.641 188 135.827 187.847 135.328 187.542C134.829 187.237 134.579 186.658 134.577 185.804C134.59 185.211 134.668 184.621 134.808 184.044C135.397 184.214 136.218 184.3 137.269 184.3C139.679 184.3 141.519 183.586 142.789 182.158C144.058 180.731 144.795 178.943 145 176.795C143.538 177.869 141.987 178.406 140.347 178.406C138.038 178.381 136.237 177.661 134.943 176.245C133.648 174.83 133.001 173.134 133 171.158C133 168.985 133.795 167.082 135.385 165.447C136.976 163.811 139.192 162.996 142.034 163ZM141.727 166.624C140.881 166.624 140.214 166.984 139.727 167.705C139.239 168.425 138.996 169.298 138.996 170.322C138.981 171.405 139.231 172.477 139.727 173.452C140.214 174.391 141.009 174.861 142.111 174.861C142.957 174.861 143.931 174.581 145.034 174.019C145.041 173.078 144.99 172.136 144.88 171.2C144.783 170.421 144.622 169.65 144.4 168.894C144.182 168.161 143.849 167.6 143.4 167.21C142.941 166.816 142.34 166.606 141.723 166.624H141.727Z" fill="white"/>
<path d="M163.072 174.313C164.976 175.093 166.274 175.99 166.965 177.004C167.656 178.018 168.001 179.244 168 180.683C168 182.659 167.131 184.373 165.393 185.826C163.655 187.279 161.274 188.003 158.249 188C157.679 188 157.114 187.976 156.554 187.928C155.888 187.862 155.226 187.758 154.572 187.617C153.809 187.458 153.19 187.182 152.714 186.789C152.238 186.395 152 185.907 152 185.324C152 184.763 152.214 184.232 152.642 183.732C153.069 183.233 153.627 182.871 154.249 182.688C154.535 183.2 155.059 183.621 155.821 183.951C156.602 184.285 157.44 184.453 158.286 184.446C159.324 184.466 160.337 184.124 161.161 183.476C161.981 182.83 162.392 181.945 162.393 180.822C162.393 179.504 161.97 178.442 161.125 177.638C160.28 176.833 159.155 176.43 157.749 176.43C157.321 176.43 156.994 176.418 156.768 176.393C156.503 176.359 156.244 176.285 156 176.174C155.863 176.118 155.739 176.034 155.635 175.927C155.531 175.82 155.449 175.693 155.394 175.553C155.263 175.189 155.202 174.802 155.215 174.414C155.21 174.009 155.245 173.604 155.322 173.206C157.417 173.206 158.995 172.792 160.055 171.964C161.114 171.136 161.644 170.159 161.643 169.035C161.643 168.23 161.418 167.62 160.966 167.205C160.514 166.79 159.93 166.583 159.215 166.584C158.382 166.584 157.574 166.852 156.791 167.389C156.008 167.926 155.484 168.621 155.219 169.475C154.338 169.354 153.66 169.055 153.184 168.579C152.708 168.102 152.469 167.585 152.469 167.026C152.469 166.026 153.183 165.105 154.612 164.263C156.041 163.421 157.826 163 159.966 163C162.252 163 164.036 163.555 165.319 164.666C166.602 165.776 167.245 167.1 167.248 168.637C167.25 171.25 165.858 173.142 163.072 174.313Z" fill="white"/>
<path d="M178 146H0V152H178V146Z" fill="white"/>
</svg>
